<svg width="46" height="46" viewBox="0 0 46 46" fill="none" xmlns="http://www.w3.org/2000/svg">
<circle cx="23" cy="23" r="23" fill="#E3FAD6"/>
<g clip-path="url(#clip0_2776_8178)">
<path d="M25.8715 24.2871L32.3935 30.8071C32.132 31.1541 31.7982 31.4401 31.4152 31.6452C31.0322 31.8504 30.6092 31.9698 30.1755 31.9951L29.9995 32.0001H15.9995C15.5354 32.0006 15.0776 31.8933 14.6622 31.6866C14.2467 31.4799 13.885 31.1795 13.6055 30.8091L20.1265 24.2871L22.4445 25.8321L22.5605 25.8981C22.6972 25.9649 22.8473 25.9996 22.9995 25.9996C23.1516 25.9996 23.3018 25.9649 23.4385 25.8981L23.5545 25.8321L25.8715 24.2871Z" fill="#167625"/>
<path d="M13 19.5352L18.429 23.1552L13 28.5852V19.5352Z" fill="#167625"/>
<path d="M33.0003 19.5352V28.5852L27.5703 23.1552L33.0003 19.5352Z" fill="#167625"/>
<path d="M23.44 12.1022L23.555 12.1682L31.999 17.7972L23 23.7972L14 17.7972L22.445 12.1672C22.5906 12.0705 22.7589 12.0135 22.9333 12.0021C23.1077 11.9907 23.2831 12.0252 23.44 12.1022Z" fill="#167625"/>
</g>
<defs>
<clipPath id="clip0_2776_8178">
<rect width="24" height="24" fill="white" transform="translate(11 10)"/>
</clipPath>
</defs>
</svg>
