<svg width="46" height="46" viewBox="0 0 46 46" fill="none" xmlns="http://www.w3.org/2000/svg">
<circle cx="23" cy="23" r="23" fill="#E6E1FE"/>
<g clip-path="url(#clip0_2776_8192)">
<path d="M20 14C20.1793 13.9999 20.3553 14.0481 20.5096 14.1394C20.6639 14.2307 20.7908 14.3618 20.877 14.519L20.928 14.629L22.928 19.629C23.0086 19.8302 23.0216 20.052 22.9651 20.2612C22.9087 20.4705 22.7858 20.6557 22.615 20.789L22.515 20.857L20.841 21.861L20.904 21.964C21.7008 23.229 22.771 24.2992 24.036 25.096L24.138 25.158L25.143 23.486C25.2544 23.3001 25.4231 23.1554 25.6239 23.0737C25.8246 22.992 26.0464 22.9777 26.256 23.033L26.371 23.072L31.371 25.072C31.5375 25.1384 31.6831 25.2484 31.7925 25.3903C31.9019 25.5323 31.9712 25.7011 31.993 25.879L32 26V30C32 31.657 30.657 33 28.94 32.998C20.361 32.477 13.522 25.638 13 17C13 16.2348 13.2923 15.4985 13.8173 14.9417C14.3422 14.385 15.0601 14.0499 15.824 14.005L16 14H20Z" fill="#1B1472"/>
</g>
<defs>
<clipPath id="clip0_2776_8192">
<rect width="24" height="24" fill="white" transform="translate(11 11)"/>
</clipPath>
</defs>
</svg>
