<svg width="632" height="536" xmlns="http://www.w3.org/2000/svg" fill="none">
  <g>
   <rect fill="white" height="536" width="632"/>
   <path stroke-width="25" stroke="#626262" fill="black" d="m255.981,239.985l-60.94,-62.236l-68.92,61.643c-5.3409,4.777 -5.7981,12.978 -1.021,18.319c4.776,5.34 12.978,5.797 18.318,1.021l50.435,-45.11l43.588,44.516c5.013,5.12 13.227,5.206 18.347,0.194c5.119,-5.013 5.205,-13.227 0.193,-18.347z"/>
   <path stroke-width="25" stroke="#626262" fill="black" d="m509.526,239.212l-71.239,-61.062l-63.722,61.583c-5.152,4.979 -5.292,13.193 -0.313,18.345c4.979,5.152 13.192,5.292 18.345,0.313l46.737,-45.169l53.306,45.69c5.44,4.663 13.63,4.033 18.293,-1.407c4.663,-5.44 4.033,-13.63 -1.407,-18.293z"/>
   <path stroke-width="25" stroke="#626262" fill="black" d="m244.057,385.895c-5.906,-4.058 -13.982,-2.559 -18.039,3.347c-4.057,5.905 -2.559,13.982 3.347,18.039c16.602,11.406 44.821,24.852 76.676,28.805c32.18,3.993 68.874,-1.678 100.213,-29.85c5.328,-4.79 5.765,-12.993 0.975,-18.321c-4.79,-5.329 -12.993,-5.765 -18.321,-0.975c-24.409,21.942 -52.953,26.712 -79.672,23.396c-27.044,-3.355 -51.387,-14.966 -65.179,-24.441z"/>
   <path stroke-width="25" stroke="#626262" fill="black" d="m19.32813,59.9961c-6.52446,2.9612 -9.18843,10.543 -5.95014,16.9344c3.2383,6.3915 11.15261,9.1723 17.67701,6.2111l40.0905,-18.1953l30.7314,62.7887c-46.6415,37.96 -76.1795,94.217 -76.1795,157.005l0,32.275c0,114.315 97.9126,206.985 218.6936,206.985l147.526,0c120.781,0 218.694,-92.67 218.694,-206.985l0,-32.275c0,-66.511 -33.145,-125.694 -84.654,-163.562l28.48,-54.8405c0.23,-0.4435 0.432,-0.893 0.606,-1.3467l46.806,19.8503c6.596,2.7974 14.429,-0.1845 17.495,-6.6604c3.066,-6.4759 0.204,-13.9935 -6.392,-16.7909l-111.777,-47.40422c-6.597,-2.79747 -14.43,0.18449 -17.496,6.66039c-3.065,6.47593 -0.204,13.99343 6.393,16.79093l41.122,17.4399c-0.097,0.1694 -0.192,0.3415 -0.282,0.5164l-26.814,51.6313c-32.799,-18.5862 -71.172,-29.2693 -112.181,-29.2693l-147.526,0c-44.812,0 -86.475,12.7563 -121.159,34.6418l-28.4701,-58.1692l39.4341,-17.8975c6.525,-2.9612 9.189,-10.543 5.95,-16.93446c-3.238,-6.39146 -11.152,-9.17224 -17.677,-6.21107l-103.14087,46.81133zm225.06287,42.3165l147.526,0c106.451,0 192.747,81.6754 192.747,182.4274l0,32.275c0,100.752 -86.296,182.427 -192.747,182.427l-147.526,0c-106.451,0 -192.7469,-81.675 -192.7469,-182.427l0,-32.275c0,-100.752 86.2959,-182.4274 192.7469,-182.4274z" clip-rule="evenodd" fill-rule="evenodd"/>
  </g>
 </svg>