<svg xmlns="http://www.w3.org/2000/svg" viewBox="0 0 32 32" fill="currentColor">
    <path
    d="m30.81851,20l-3.36079,0l0,-14.95a3.428,3.06 0 0 0 -3.428,-3l-20.03029,0a3.428,3.06 0 0 0 -3.428,3l0,7a1.12026,1 0 1 0 2.24052,0l0,-7a1.18748,1.06 0 0 1 1.18748,-1.05l20.03029,0a1.18748,1.06 0 0 1 1.18748,1l0,10l-23.52551,0a1.12026,1 0 0 0 -1.12026,1l0,5.94a3.43921,3.07 0 0 0 3.4168,3.06a3.89851,3.48 0 0 0 7.78582,0l4.59308,0a3.89851,3.48 0 0 0 7.72981,0a3.428,3.06 0 0 0 3.36079,-3l0.15684,0l0.96343,6.14a1.12026,1 0 0 0 1.12026,0.86l0.15684,0a1.12026,1 0 0 0 0.96343,-1.14l-0.95222,-5.86l0.95222,0a1.12026,1 0 0 0 0,-2zm-22.96538,6a1.68039,1.5 0 1 1 1.68039,-1.5a1.68039,1.5 0 0 1 -1.68039,1.5zm17.36407,-4a1.18748,1.06 0 0 1 -1.18748,1l-1.33311,0a0.58254,0.52 0 0 0 -0.14563,0.06a1.12026,1 0 0 0 -0.69456,1.14a1.62438,1.45 0 0 1 0,0.3a1.68039,1.5 0 1 1 -2.01647,-1.5a1.12026,1 0 0 0 -0.4481,-2a3.92092,3.5 0 0 0 -2.74464,2l-5.26523,0a3.89851,3.48 0 0 0 -7.05765,0l-0.32488,0a1.19868,1.07 0 0 1 -1.18748,-1.06l0,-4.94l22.40525,0l0,5z" stroke="currentColor" stroke-width="0.5"
    />
</svg>