<svg id="Pill_label_1" data-name="Pill label 1" xmlns="http://www.w3.org/2000/svg" xmlns:xlink="http://www.w3.org/1999/xlink" width="80" height="33" viewBox="0 0 80 33">
  <defs>
    <clipPath id="clip-path">
      <rect id="icon" width="18" height="18" fill="#fff" stroke="#707070" stroke-width="1"/>
    </clipPath>
  </defs>
  <path id="Path_29274" data-name="Path 29274" d="M40,22.489v5.547" fill="none" stroke="#7367f0" stroke-linecap="round" stroke-width="3"/>
  <g id="Rectangle_1905" data-name="Rectangle 1905" fill="#7367f0" stroke="#f1f4ff" stroke-width="1">
    <rect width="80" height="23" rx="11.5" stroke="none"/>
    <rect x="0.5" y="0.5" width="79" height="22" rx="11" fill="none"/>
  </g>
  <text id="_" data-name=" " transform="translate(33 4)" fill="#fff" font-size="12" font-family="Montserrat-SemiBold, Montserrat" font-weight="600"><tspan x="0" y="12"> </tspan></text>
  <g id="Mask_Group_201" data-name="Mask Group 201" transform="translate(9 3)" clip-path="url(#clip-path)">
    <g id="__TEMP__SVG__" transform="translate(0 2.25)">
      <path id="Path_29271" data-name="Path 29271" d="M0,4.563A1.688,1.688,0,0,1,1.688,2.875H11.813A1.688,1.688,0,0,1,13.5,4.563v7.875H12.375V4.563A.563.563,0,0,0,11.813,4H1.688a.563.563,0,0,0-.563.563v7.875A.563.563,0,0,0,1.688,13v1.125A1.688,1.688,0,0,1,0,12.438ZM5.063,13h6.75v1.125H5.063Z" transform="translate(0 -2.875)" fill="#fff"/>
      <path id="Path_29272" data-name="Path 29272" d="M12.688,7.188H14.96a1.688,1.688,0,0,1,1.316.634L17.942,9.9a1.688,1.688,0,0,1,.37,1.056v2.417a1.688,1.688,0,0,1-1.688,1.688H15.5V13.938h1.125a.563.563,0,0,0,.563-.563V10.956a.563.563,0,0,0-.124-.351L15.4,8.524a.563.563,0,0,0-.439-.211H13.813v5.063H12.688Zm-9,9a1.125,1.125,0,1,0-1.125-1.125A1.125,1.125,0,0,0,3.688,16.188Zm0,1.125a2.25,2.25,0,1,0-2.25-2.25A2.25,2.25,0,0,0,3.688,17.313Z" transform="translate(-0.313 -3.813)" fill="#fff"/>
      <path id="Path_29273" data-name="Path 29273" d="M16.625,17.75A1.125,1.125,0,1,0,15.5,16.625,1.125,1.125,0,0,0,16.625,17.75Zm0,1.125a2.25,2.25,0,1,0-2.25-2.25A2.25,2.25,0,0,0,16.625,18.876Z" transform="translate(-3.125 -5.375)" fill="#fff"/>
    </g>
  </g>
  <circle id="Ellipse_88" data-name="Ellipse 88" cx="3" cy="3" r="3" transform="translate(37 27)" fill="#7367f0"/>
</svg>
