<svg width="580" height="580" viewBox="0 0 580 580" fill="none" xmlns="http://www.w3.org/2000/svg">
<path d="M201.62 189.08C290.743 98.5188 447.273 96.5584 500.111 230.109C514.75 267.102 511.931 320.659 477.723 347.722C431.88 383.995 389.563 336.052 341.597 341.748C293.817 347.408 262.949 402.752 213.243 407.009C169.813 410.64 123.772 385.735 97.4401 352.524C68.5677 316.054 50.9821 268.865 99.6441 242.243C125.28 228.23 159.605 234.703 175.833 225.353C188.315 218.184 191.099 199.729 201.62 189.08Z" fill="#407BFF"/>
<path opacity="0.9" d="M201.62 189.08C290.743 98.5188 447.273 96.5584 500.111 230.109C514.75 267.102 511.931 320.659 477.723 347.722C431.88 383.995 389.563 336.052 341.597 341.748C293.817 347.408 262.949 402.752 213.243 407.009C169.813 410.64 123.772 385.735 97.4401 352.524C68.5677 316.054 50.9821 268.865 99.6441 242.243C125.28 228.23 159.605 234.703 175.833 225.353C188.315 218.184 191.099 199.729 201.62 189.08Z" fill="white"/>
<path d="M290 495.969C414.215 495.969 514.912 490.09 514.912 482.838C514.912 475.586 414.215 469.707 290 469.707C165.784 469.707 65.0874 475.586 65.0874 482.838C65.0874 490.09 165.784 495.969 290 495.969Z" fill="#F5F5F5"/>
<path d="M500.021 192.914L499.649 201.293L500.855 201.346L501.226 192.968L500.021 192.914Z" fill="#407BFF"/>
<path d="M501.313 163.945L500.321 186.3L501.526 186.353L502.518 163.999L501.313 163.945Z" fill="#407BFF"/>
<path d="M482.27 298.63H250.49C249.194 298.638 247.91 298.381 246.717 297.875C245.524 297.369 244.446 296.624 243.551 295.687C242.656 294.75 241.962 293.639 241.512 292.424C241.061 291.208 240.864 289.914 240.932 288.619L248.75 114.028C248.9 111.347 250.061 108.824 251.998 106.966C253.936 105.108 256.506 104.054 259.19 104.017H490.993C492.29 104.007 493.575 104.263 494.769 104.768C495.963 105.274 497.041 106.018 497.936 106.956C498.832 107.894 499.526 109.005 499.975 110.221C500.425 111.438 500.621 112.733 500.552 114.028L492.733 288.619C492.581 291.303 491.416 293.828 489.474 295.686C487.532 297.544 484.957 298.596 482.27 298.63Z" fill="#407BFF"/>
<path opacity="0.5" d="M480.565 298.63H250.49C249.194 298.638 247.91 298.381 246.717 297.875C245.524 297.369 244.446 296.624 243.551 295.687C242.656 294.749 241.962 293.639 241.512 292.424C241.061 291.208 240.864 289.914 240.932 288.619L248.75 114.028C248.9 111.347 250.061 108.823 251.998 106.965C253.936 105.108 256.506 104.054 259.19 104.017H489.288C490.585 104.009 491.869 104.266 493.063 104.772C494.257 105.278 495.335 106.022 496.231 106.959C497.127 107.897 497.822 109.007 498.274 110.222C498.726 111.438 498.924 112.733 498.858 114.028L491.028 288.619C490.876 291.303 489.711 293.828 487.769 295.686C485.827 297.544 483.252 298.596 480.565 298.63Z" fill="white"/>
<path opacity="0.4" d="M413.007 252.091L371.525 251.72L376.71 193.522H416.51L413.007 252.091Z" fill="#407BFF"/>
<path opacity="0.4" d="M312.794 186.516L271.301 186.33L276.219 128.133L317.712 128.318L312.794 186.516Z" fill="#407BFF"/>
<path opacity="0.4" d="M420.141 183.476L378.404 185.24L380.967 127.251L421.034 125.558L420.141 183.476Z" fill="#407BFF"/>
<path opacity="0.4" d="M466.181 231.466L425.407 228.264L431.068 170.125L471.006 174.301L466.181 231.466Z" fill="#407BFF"/>
<path opacity="0.4" d="M363.776 170.496L331.853 169.638L335.066 124.896L366.618 125.372L363.776 170.496Z" fill="#407BFF"/>
<path opacity="0.4" d="M308.108 290L276.753 289.339L279.955 244.586L310.068 244.018L308.108 290Z" fill="#407BFF"/>
<path opacity="0.4" d="M478.175 163.2L446.217 163.281L449.848 118.493L481.191 118.412L478.175 163.2Z" fill="#407BFF"/>
<path opacity="0.4" d="M321.494 233.762L353.104 237.405L358.753 191.817L328.593 189.288L321.494 233.762Z" fill="#407BFF"/>
<path d="M411.382 250.386L369.901 250.015L375.086 191.817L416.568 192.2L411.382 250.386Z" fill="white"/>
<path d="M312.469 185.205L270.988 184.834L276.173 126.637L317.655 127.02L312.469 185.205Z" fill="white"/>
<path d="M418.517 181.772L376.78 183.535L379.332 125.558L421.08 123.795L418.517 181.772Z" fill="white"/>
<path d="M464.905 230.874L423.783 226.571L429.444 168.42L470.566 172.724L464.905 230.874Z" fill="white"/>
<path d="M363.162 168.803L331.238 167.944L334.44 123.191L366.363 124.05L363.162 168.803Z" fill="white"/>
<path d="M307.052 288.491L275.129 287.633L278.331 242.892L310.254 243.75L307.052 288.491Z" fill="white"/>
<path d="M477.097 162.574L445.139 162.655L448.769 117.856L480.727 117.774L477.097 162.574Z" fill="white"/>
<path d="M319.87 232.057L351.48 235.7L358.568 191.225L326.969 187.583L319.87 232.057Z" fill="white"/>
<path opacity="0.4" d="M336.586 253.367C336.586 253.367 336.4 265.512 334.66 269.12C340.333 270.744 351.271 270.721 351.271 270.721C351.271 270.721 353.661 259.04 353.267 254.481C350.007 253.704 336.586 253.367 336.586 253.367Z" fill="#407BFF"/>
<path d="M336.586 253.367C336.586 253.367 335.24 265.489 333.512 269.12C338.608 270.335 343.782 271.192 348.998 271.684C348.998 271.684 353.823 259.074 353.267 254.446C350.007 253.704 336.586 253.367 336.586 253.367Z" fill="white"/>
<path opacity="0.4" d="M421.997 255.35C421.997 255.35 428.574 271.984 428.203 277.854C437.111 276.856 452.621 271.741 452.621 271.741C452.621 271.741 449.303 253.424 446.113 247.381C441.125 248.239 421.997 255.35 421.997 255.35Z" fill="#407BFF"/>
<path d="M419.851 254.098C419.851 254.098 425.372 275.465 425.001 281.334C433.91 280.325 451.101 273.435 451.101 273.435C451.101 273.435 448.781 251.604 445.301 245.595C440.359 246.488 419.851 254.098 419.851 254.098Z" fill="white"/>
<path opacity="0.4" d="M441.577 250.699C441.551 251.211 441.329 251.693 440.958 252.047C440.587 252.401 440.095 252.599 439.582 252.602C439.335 252.605 439.09 252.558 438.862 252.462C438.634 252.367 438.428 252.226 438.257 252.047C438.086 251.869 437.954 251.657 437.868 251.425C437.783 251.193 437.746 250.946 437.761 250.699C437.787 250.186 438.009 249.703 438.379 249.347C438.75 248.991 439.242 248.79 439.756 248.785C440.004 248.783 440.249 248.832 440.477 248.929C440.705 249.025 440.911 249.168 441.082 249.347C441.252 249.527 441.384 249.739 441.47 249.972C441.555 250.204 441.592 250.452 441.577 250.699Z" fill="#407BFF"/>
<path d="M314.058 127.043C314.001 127.911 313.62 128.727 312.99 129.328C312.361 129.929 311.53 130.273 310.66 130.291C310.238 130.296 309.82 130.215 309.431 130.052C309.042 129.889 308.691 129.647 308.399 129.343C308.108 129.038 307.882 128.677 307.736 128.281C307.59 127.886 307.527 127.464 307.551 127.043C307.609 126.175 307.99 125.36 308.619 124.758C309.248 124.157 310.08 123.813 310.95 123.795C311.371 123.791 311.788 123.874 312.176 124.038C312.564 124.201 312.915 124.443 313.206 124.747C313.497 125.051 313.723 125.412 313.87 125.807C314.016 126.202 314.081 126.622 314.058 127.043Z" fill="#407BFF"/>
<path d="M335.623 188.627C335.593 189.249 335.327 189.835 334.878 190.267C334.429 190.698 333.832 190.942 333.21 190.947C332.909 190.951 332.612 190.892 332.335 190.776C332.058 190.659 331.808 190.486 331.601 190.268C331.394 190.05 331.235 189.792 331.132 189.51C331.03 189.227 330.987 188.927 331.006 188.627C331.036 188.005 331.302 187.418 331.751 186.987C332.199 186.555 332.796 186.312 333.419 186.307C333.719 186.303 334.017 186.361 334.294 186.478C334.571 186.595 334.821 186.768 335.027 186.985C335.234 187.203 335.394 187.461 335.497 187.744C335.599 188.026 335.642 188.327 335.623 188.627Z" fill="#407BFF"/>
<path d="M433.84 142.517C433.805 143.137 433.537 143.721 433.089 144.151C432.642 144.581 432.048 144.827 431.427 144.837C431.127 144.839 430.829 144.78 430.552 144.663C430.276 144.545 430.026 144.373 429.819 144.156C429.611 143.938 429.45 143.681 429.346 143.399C429.241 143.117 429.196 142.817 429.212 142.517C429.244 141.897 429.511 141.311 429.959 140.88C430.407 140.45 431.003 140.205 431.624 140.197C431.925 140.195 432.222 140.255 432.499 140.372C432.776 140.489 433.025 140.662 433.233 140.879C433.44 141.096 433.601 141.354 433.706 141.635C433.81 141.917 433.856 142.217 433.84 142.517Z" fill="#407BFF"/>
<path d="M179.394 153.979C180.647 160.37 181.888 172.075 177.422 176.343C181.048 182.202 186.443 186.756 192.827 189.347C201.376 183.999 197.282 176.343 197.282 176.343C190.159 174.638 190.322 169.383 191.586 164.384L179.394 153.979Z" fill="#B55B52"/>
<path d="M170.914 156.16C165.66 155.626 150.034 177.701 180.287 187.549C175.369 182.991 172.921 178.571 174.209 173.351C174.978 169.308 175.189 165.179 174.835 161.078C174.835 161.078 176.633 156.74 170.914 156.16Z" fill="#263238"/>
<path d="M174.116 183.014C173.038 181.783 172.189 180.369 171.611 178.838C171.252 177.82 171.161 176.727 171.347 175.664C171.533 174.602 171.989 173.604 172.672 172.769C173.355 171.933 174.241 171.288 175.246 170.894C176.25 170.5 177.339 170.372 178.408 170.521C181.666 170.968 184.969 170.992 188.233 170.59C195.634 169.674 199.509 173.397 203.511 181.378C203.511 181.378 201.643 184.858 196.04 186.215C190.437 187.573 174.116 183.014 174.116 183.014Z" fill="#407BFF"/>
<path d="M206.736 148.341C206.538 149.187 206.817 149.976 207.374 150.104C207.93 150.231 208.534 149.663 208.742 148.816C208.951 147.969 208.661 147.181 208.104 147.053C207.548 146.925 206.944 147.494 206.736 148.341Z" fill="#263238"/>
<path d="M207.849 147.042L210.018 146.938C210.018 146.938 208.603 148.272 207.849 147.042Z" fill="#263238"/>
<path d="M209.218 143.586C209.316 143.59 209.414 143.566 209.5 143.516C209.585 143.466 209.654 143.392 209.698 143.304C209.743 143.216 209.76 143.116 209.749 143.018C209.738 142.919 209.698 142.827 209.635 142.75C209.128 142.119 208.476 141.619 207.735 141.292C206.995 140.965 206.186 140.821 205.378 140.871C205.311 140.878 205.246 140.899 205.186 140.931C205.127 140.964 205.075 141.008 205.033 141.061C204.991 141.114 204.96 141.174 204.941 141.239C204.923 141.304 204.917 141.372 204.926 141.44C204.943 141.574 205.012 141.696 205.118 141.781C205.224 141.865 205.359 141.905 205.494 141.892C206.135 141.859 206.775 141.979 207.36 142.243C207.946 142.508 208.459 142.908 208.858 143.412C208.951 143.514 209.08 143.576 209.218 143.586Z" fill="#263238"/>
<path d="M205.68 150.928C205.967 153.039 206.545 155.1 207.397 157.053C206.892 157.255 206.35 157.346 205.807 157.317C205.264 157.289 204.734 157.144 204.253 156.89L205.68 150.928Z" fill="#A02724"/>
<path d="M179.069 138.041C177.213 148.573 176.204 152.981 180.16 159.57C186.111 169.477 199.439 169.453 204.415 159.698C208.881 150.917 211.178 135.175 202.014 128.61C200.002 127.151 197.65 126.231 195.182 125.937C192.714 125.642 190.212 125.984 187.913 126.929C185.614 127.874 183.595 129.391 182.047 131.335C180.499 133.28 179.474 135.588 179.069 138.041Z" fill="#B55B52"/>
<path d="M197.78 146.392C200.97 145.093 208.557 142.216 210.413 137.681C212.269 133.145 204.613 121.035 198.07 123.424C181.03 119.794 169.151 127.948 169.221 140.824C169.291 154.28 174.638 161.936 183.408 163.932C192.177 165.927 199.799 156.74 197.78 146.392Z" fill="#263238"/>
<path d="M173.293 150.092C169.813 149.617 167.957 153.143 169.221 156.066C170.485 158.989 174.708 163.618 176.332 163.618C177.956 163.618 181.169 162.458 181.981 160.637C182.793 158.815 175.636 150.429 173.293 150.092Z" fill="#407BFF"/>
<path d="M194.88 145.418C194.643 146.413 194.605 147.444 194.768 148.454C194.931 149.463 195.293 150.43 195.831 151.299C197.281 153.619 199.845 152.773 200.982 150.429C202.002 148.33 202.466 144.629 200.274 143.075C199.789 142.745 199.228 142.544 198.643 142.489C198.059 142.434 197.47 142.528 196.932 142.762C196.394 142.996 195.923 143.362 195.565 143.826C195.206 144.291 194.97 144.838 194.88 145.418Z" fill="#B55B52"/>
<path d="M170.439 187.085C170.439 187.514 170.439 188.245 170.439 188.813V190.693C170.439 191.953 170.497 193.218 170.613 194.486C170.79 196.989 171.115 199.48 171.587 201.945C172.443 206.659 174.217 211.16 176.807 215.192C177.759 216.421 177.387 216.224 178.199 216.781C179.065 217.321 179.992 217.758 180.96 218.08C183.346 218.889 185.789 219.521 188.268 219.971C193.43 220.945 198.894 221.618 204.253 222.163L204.404 227.627C198.721 228.37 192.982 228.592 187.259 228.288C184.242 228.149 181.244 227.73 178.304 227.035C176.606 226.628 174.96 226.028 173.397 225.249C172.421 224.738 171.513 224.107 170.694 223.37C170.462 223.161 170.23 222.917 169.998 222.674L169.569 222.175L168.78 221.235C166.785 218.731 165.124 215.978 163.839 213.046C162.587 210.221 161.616 207.28 160.939 204.265C160.249 201.322 159.78 198.333 159.535 195.321C159.431 193.825 159.361 192.328 159.338 190.82C159.338 190.066 159.338 189.312 159.338 188.558C159.338 187.804 159.396 187.097 159.477 186.134L170.439 187.085Z" fill="#B55B52"/>
<path d="M203.917 221.758L215.412 219.948L209.752 229.321C209.752 229.321 202.792 229.031 200.889 225.006L203.917 221.758Z" fill="#B55B52"/>
<path d="M221.096 223.103L221.131 230.075L209.751 229.321L215.412 219.948L221.096 223.103Z" fill="#B55B52"/>
<path d="M245.328 252.788H209.368C209.13 252.817 208.889 252.783 208.668 252.689C208.447 252.595 208.255 252.445 208.11 252.254C207.966 252.062 207.874 251.836 207.844 251.598C207.815 251.36 207.848 251.118 207.942 250.897L224.541 202.537C224.762 201.993 225.136 201.526 225.618 201.193C226.101 200.859 226.669 200.673 227.256 200.657H263.216C263.453 200.626 263.695 200.658 263.916 200.75C264.138 200.842 264.331 200.991 264.476 201.182C264.621 201.373 264.712 201.599 264.742 201.837C264.771 202.075 264.737 202.316 264.642 202.537L248.043 250.897C247.82 251.44 247.446 251.907 246.964 252.242C246.483 252.578 245.915 252.767 245.328 252.788Z" fill="#407BFF"/>
<path d="M244.691 251.256H209.96C209.827 251.274 209.691 251.256 209.568 251.204C209.444 251.152 209.336 251.068 209.255 250.96C209.175 250.853 209.125 250.726 209.11 250.592C209.095 250.458 209.116 250.323 209.171 250.201L225.574 202.374C225.7 202.071 225.91 201.811 226.179 201.624C226.449 201.437 226.766 201.331 227.093 201.318H261.893C262.027 201.302 262.162 201.321 262.285 201.373C262.409 201.425 262.517 201.509 262.598 201.616C262.679 201.722 262.73 201.849 262.747 201.982C262.764 202.115 262.746 202.25 262.694 202.374L246.28 250.201C246.149 250.514 245.928 250.782 245.645 250.97C245.362 251.158 245.03 251.257 244.691 251.256Z" fill="white"/>
<path d="M159.697 178.641L171.297 183.339L177.48 190.194L178.281 199.648C178.281 199.648 164.767 209.903 157.586 208.928C155.104 191.551 156.658 181.993 159.697 178.641Z" fill="#263238"/>
<path d="M216.758 186.308C216.932 194.114 215.83 210.366 210.343 244.11H166.599C167.33 226.304 168.2 215.11 159.639 178.617C165.52 177.407 171.484 176.64 177.48 176.32C184.091 175.844 190.728 175.844 197.339 176.32C201.62 176.714 206.19 177.399 209.67 178.002C211.633 178.347 213.414 179.365 214.707 180.88C216.001 182.396 216.726 184.315 216.758 186.308Z" fill="#263238"/>
<path opacity="0.2" d="M208.209 189.347L215.992 202.025C215.586 206.538 214.995 211.943 214.148 218.405L207.768 214.635C205.158 195.448 208.209 189.347 208.209 189.347Z" fill="black"/>
<path d="M217.477 189.556C219.093 194.636 220.64 199.74 222.117 204.868L224.344 212.558L226.49 220.272L227.546 224.135L228.068 226.072C228.188 226.567 228.335 227.055 228.509 227.534C228.728 228.169 229.02 228.776 229.379 229.344C229.46 229.46 229.448 229.483 229.379 229.518C229.309 229.552 229.298 229.622 229.437 229.645C230.121 229.65 230.792 229.461 231.374 229.1C232.332 228.581 233.241 227.976 234.088 227.29C235.016 226.548 235.933 225.736 236.838 224.878C237.742 224.019 238.636 223.056 239.448 222.198L244.088 225.121C243.453 226.435 242.74 227.709 241.953 228.938C241.18 230.198 240.316 231.4 239.366 232.534C238.353 233.77 237.21 234.894 235.956 235.886C234.382 237.159 232.517 238.02 230.527 238.392C229.224 238.611 227.888 238.535 226.618 238.171C225.364 237.8 224.2 237.176 223.196 236.338C221.666 235.016 220.429 233.388 219.565 231.559C219.193 230.81 218.875 230.034 218.614 229.239L217.964 227.325L216.665 223.509L214.125 215.853L211.677 208.162C210.018 203.035 208.452 197.884 206.944 192.722L217.477 189.556Z" fill="#B55B52"/>
<path d="M205.599 186.761C207.443 182.353 213.22 179.511 213.22 179.511C219.438 183.559 221.537 185.473 225.667 206.063C219.646 211.33 209.67 211.33 209.67 211.33L204.288 197.41C204.288 197.41 203.754 191.204 205.599 186.761Z" fill="#263238"/>
<path d="M238.021 224.24L242.15 214.171L247.208 223.88C247.208 223.88 243.38 229.68 238.925 229.216L238.021 224.24Z" fill="#B55B52"/>
<path d="M249.771 216.201C249.669 216.204 249.568 216.181 249.477 216.134C249.385 216.087 249.307 216.019 249.249 215.934L237.197 199.439C237.097 199.297 237.056 199.122 237.084 198.95C237.113 198.779 237.207 198.625 237.348 198.523C237.488 198.423 237.662 198.383 237.831 198.411C238.001 198.439 238.152 198.534 238.253 198.674L250.293 215.169C250.369 215.264 250.415 215.379 250.427 215.5C250.439 215.621 250.416 215.743 250.362 215.851C250.307 215.96 250.222 216.05 250.118 216.112C250.013 216.174 249.893 216.205 249.771 216.201Z" fill="#263238"/>
<path d="M251.164 212.211L253.82 218.057L247.208 223.881L242.15 214.171L251.164 212.211Z" fill="#B55B52"/>
<path d="M210.343 244.11C210.343 244.11 221.27 326.807 225.006 359.449C230.516 407.659 242.823 471.969 242.823 471.969L235.48 473.28C235.48 473.28 209.821 410.35 205.947 362.697C193.778 327.596 176.32 244.11 176.32 244.11H210.343Z" fill="#B55B52"/>
<path d="M242.231 464.07L232.731 468.71C232.539 468.797 232.386 468.951 232.3 469.144C232.214 469.336 232.203 469.553 232.267 469.754L235.329 478.825C235.424 479.054 235.565 479.261 235.743 479.432C235.922 479.603 236.134 479.734 236.367 479.819C236.6 479.903 236.847 479.937 237.094 479.92C237.341 479.903 237.581 479.834 237.8 479.718C241.698 477.735 241.709 477.468 246.663 475.078C249.713 473.582 254.667 471.32 258.877 469.278C263.088 467.237 261.279 463.165 259.341 463.664C250.665 465.914 247.939 464.696 244.261 463.884C243.584 463.711 242.866 463.776 242.231 464.07Z" fill="#263238"/>
<path d="M198.917 244.11C198.917 244.11 191.818 322.434 185.844 354.74C179.568 388.67 174.882 469.522 174.812 471.992H167.353C167.353 471.992 157.145 381.106 166.669 350.691C168.246 313.571 166.599 244.11 166.599 244.11H198.917Z" fill="#B55B52"/>
<path d="M175.694 470.473H167.203C166.992 470.468 166.786 470.541 166.626 470.678C166.465 470.815 166.361 471.006 166.333 471.215L165.08 480.924C165.057 481.171 165.086 481.419 165.165 481.654C165.244 481.888 165.371 482.103 165.538 482.286C165.706 482.468 165.909 482.614 166.136 482.713C166.362 482.812 166.607 482.863 166.855 482.862C171.123 482.792 169.418 482.537 174.812 482.537C178.13 482.537 182.932 482.885 187.572 482.885C192.212 482.885 192.34 478.349 190.426 477.943C181.842 476.099 180.461 473.558 177.538 471.146C177.022 470.711 176.369 470.473 175.694 470.473Z" fill="#263238"/>
<path opacity="0.2" d="M166.762 348.441L186.563 350.622C187.363 345.889 188.187 340.426 188.987 334.533L167.168 332.294C167.04 338.036 166.947 343.5 166.762 348.441Z" fill="black"/>
<path opacity="0.2" d="M222.419 337.966L197.78 335.438C199.404 341.481 201.028 347.2 202.594 352.373L224.449 354.763C223.88 349.856 223.184 344.149 222.419 337.966Z" fill="black"/>
<path d="M210.343 244.11L226.119 352.153L164.778 344.381C170.764 298.132 152.587 261.046 166.6 244.11H210.343Z" fill="#407BFF"/>
<path opacity="0.2" d="M172.353 266.278C179.059 272.106 186.837 276.57 195.251 279.421C181.471 279.27 175.079 274.375 172.353 266.278Z" fill="black"/>
</svg>
