<svg width="87" height="20" viewBox="0 0 87 20" fill="none" xmlns="http://www.w3.org/2000/svg">
<path d="M47.1806 16.4058V8.24704H50.5144V4.94121H47.1806V0.0367432H43.3862V4.93849H41.2314V8.24433H43.3875V19.7917H50.5144V16.399L47.1806 16.4058Z" fill="black"/>
<path d="M14.6264 4.93665H10.0933L3.31746 16.4052H0V19.7979H5.29738L10.8414 10.4057V19.7912H15.3135L20.8317 10.3785V19.7912H24.6262V4.93665H20.0728L14.6264 14.1485V4.93665Z" fill="black"/>
<path d="M55.9136 4.93665H52.1191V19.7912H55.9136V4.938V4.93665Z" fill="black"/>
<path d="M55.9099 0.0367432H52.125V3.42129H55.9099V0.0367432Z" fill="black"/>
<path d="M33.5331 4.76404H33.5047C29.4242 4.76404 26.1475 8.15671 26.1475 12.3637C26.1475 16.5706 29.4242 19.9633 33.5047 19.9633H33.5331C37.6149 19.9633 40.8619 16.538 40.8619 12.3637C40.8619 8.18927 37.6149 4.76404 33.5331 4.76404ZM33.5331 16.1635H33.5047C31.4936 16.1635 29.9419 14.4658 29.9419 12.3637C29.9419 10.2615 31.4936 8.56388 33.5047 8.56388H33.5331C35.4873 8.56388 37.0715 10.2901 37.0715 12.3637C37.0688 14.463 35.5171 16.1607 33.5331 16.1607V16.1635Z" fill="black"/>
<path d="M79.362 16.5884C80.8871 16.5884 81.8369 15.6969 82.0953 14.9179H85.8903C85.7465 16.1569 84.1068 19.9608 79.3593 19.9608C75.0731 19.9608 71.9062 16.7337 71.9062 12.353C71.9062 8.06058 75.1586 4.74664 79.2432 4.74664C83.1271 4.74664 86.1543 8.14608 86.1543 12.2961C86.1543 12.7276 86.1258 13.132 86.0973 13.4197H75.7978C76.0541 15.2355 77.1477 16.5884 79.362 16.5884ZM75.9145 10.7109H82.4198C82.0127 9.21822 81.0101 8.11763 79.255 8.11763C77.4159 8.11763 76.3453 9.18427 75.9187 10.7109H75.9145Z" fill="black"/>
<path d="M68.5728 4.94099L64.9572 14.6576L61.3416 4.94099H57.2842L63.0234 19.7928H66.8423L72.6153 4.94914H68.5728C68.5728 4.94914 68.5728 4.93963 68.5728 4.94099Z" fill="black"/>
</svg>
