<svg width="19" height="20" viewBox="0 0 19 20" fill="none" xmlns="http://www.w3.org/2000/svg">
<path d="M13.5 0C13.7449 3.23106e-05 13.9813 0.0899562 14.1644 0.252715C14.3474 0.415475 14.4643 0.639749 14.493 0.883L14.5 1V2H15.5C16.2652 1.99996 17.0015 2.29233 17.5583 2.81728C18.115 3.34224 18.4501 4.06011 18.495 4.824L18.5 5V17C18.5 17.7652 18.2077 18.5015 17.6827 19.0583C17.1578 19.615 16.4399 19.9501 15.676 19.995L15.5 20H3.5C2.73479 20 1.99849 19.7077 1.44174 19.1827C0.884993 18.6578 0.549892 17.9399 0.505 17.176L0.5 17V5C0.499957 4.23479 0.792325 3.49849 1.31728 2.94174C1.84224 2.38499 2.56011 2.04989 3.324 2.005L3.5 2H4.5V1C4.50028 0.74512 4.59788 0.499968 4.77285 0.314632C4.94782 0.129296 5.18695 0.017765 5.44139 0.00282788C5.69584 -0.0121092 5.94638 0.0706746 6.14183 0.234265C6.33729 0.397855 6.4629 0.629904 6.493 0.883L6.5 1V2H12.5V1C12.5 0.734784 12.6054 0.48043 12.7929 0.292893C12.9804 0.105357 13.2348 0 13.5 0ZM16.5 7H2.5V16.625C2.5 17.33 2.886 17.911 3.383 17.991L3.5 18H15.5C16.013 18 16.436 17.47 16.493 16.785L16.5 16.625V7Z" fill="#025481"/>
</svg>
