<svg fill="none" height="372" viewBox="0 0 781 372" width="781" xmlns="http://www.w3.org/2000/svg" xmlns:xlink="http://www.w3.org/1999/xlink"><mask id="a" height="618" maskUnits="userSpaceOnUse" width="1084" x="-303" y="0"><path d="m-303 .104431h1084v616.924h-1084z" fill="#c4c4c4"/></mask><g mask="url(#a)" stroke="#0384fb" stroke-miterlimit="10" stroke-width=".3"><path d="m429.695 689.411c178.583 0 323.353-144.77 323.353-323.354s-144.77-323.3545-323.353-323.3545-323.354 144.7705-323.354 323.3545 144.771 323.354 323.354 323.354z"/><path d="m429.691 658.636c161.586 0 292.577-130.992 292.577-292.577 0-161.586-130.991-292.5776-292.577-292.5776-161.585 0-292.576 130.9916-292.576 292.5776 0 161.585 130.991 292.577 292.576 292.577z"/><path d="m429.686 628.048c144.694 0 261.992-117.298 261.992-261.992s-117.298-261.992-261.992-261.992c-144.693 0-261.991 117.298-261.991 261.992s117.298 261.992 261.991 261.992z"/><path d="m429.693 597.272c127.696 0 231.214-103.518 231.214-231.214 0-127.697-103.518-231.215-231.214-231.215s-231.214 103.518-231.214 231.215c0 127.696 103.518 231.214 231.214 231.214z"/><path d="m429.688 566.687c110.804 0 200.629-89.825 200.629-200.63 0-110.804-89.825-200.629-200.629-200.629s-200.629 89.825-200.629 200.629c0 110.805 89.825 200.63 200.629 200.63z"/><path d="m429.69 535.909c93.806 0 169.852-76.045 169.852-169.852s-76.046-169.853-169.852-169.853c-93.807 0-169.852 76.046-169.852 169.853s76.045 169.852 169.852 169.852z"/><path d="m429.692 505.131c76.808 0 139.074-62.266 139.074-139.075s-62.266-139.075-139.074-139.075c-76.809 0-139.075 62.266-139.075 139.075s62.266 139.075 139.075 139.075z"/><path d="m429.692 474.546c59.917 0 108.49-48.573 108.49-108.49 0-59.918-48.573-108.491-108.49-108.491s-108.49 48.573-108.49 108.491c0 59.917 48.573 108.49 108.49 108.49z"/><path d="m429.691 443.77c42.919 0 77.712-34.793 77.712-77.713 0-42.919-34.793-77.713-77.712-77.713s-77.712 34.794-77.712 77.713c0 42.92 34.793 77.713 77.712 77.713z"/><path d="m429.693 412.992c25.921 0 46.935-21.014 46.935-46.936 0-25.921-21.014-46.935-46.935-46.935-25.922 0-46.935 21.014-46.935 46.935 0 25.922 21.013 46.936 46.935 46.936z"/><path d="m59.4079 689.411c178.5831 0 323.3531-144.77 323.3531-323.354s-144.77-323.3545-323.3531-323.3545c-178.5829 0-323.3529 144.7705-323.3529 323.3545s144.77 323.354 323.3529 323.354z"/><path d="m59.4072 658.636c161.5858 0 292.5758-130.992 292.5758-292.577 0-161.586-130.99-292.5776-292.5758-292.5776-161.5852 0-292.5762 130.9916-292.5762 292.5776 0 161.585 130.991 292.577 292.5762 292.577z"/><path d="m59.4073 628.048c144.6937 0 261.9907-117.298 261.9907-261.992s-117.297-261.992-261.9907-261.992-261.9913 117.298-261.9913 261.992 117.2976 261.992 261.9913 261.992z"/><path d="m59.4091 597.272c127.6959 0 231.2139-103.518 231.2139-231.214 0-127.697-103.518-231.215-231.2139-231.215s-231.2141 103.518-231.2141 231.215c0 127.696 103.5182 231.214 231.2141 231.214z"/><path d="m59.4066 566.687c110.8044 0 200.6294-89.825 200.6294-200.63 0-110.804-89.825-200.629-200.6294-200.629s-200.6296 89.825-200.6296 200.629c0 110.805 89.8252 200.63 200.6296 200.63z"/><path d="m59.411 535.909c93.807 0 169.852-76.045 169.852-169.852s-76.045-169.853-169.852-169.853c-93.8066 0-169.852 76.046-169.852 169.853s76.0454 169.852 169.852 169.852z"/><path d="m59.4076 505.131c76.8084 0 139.0744-62.266 139.0744-139.075s-62.266-139.075-139.0744-139.075c-76.8088 0-139.0746 62.266-139.0746 139.075s62.2658 139.075 139.0746 139.075z"/><path d="m59.4102 474.546c59.9168 0 108.4898-48.573 108.4898-108.49 0-59.918-48.573-108.491-108.4898-108.491-59.917265 0-108.4898 48.573-108.4898 108.491 0 59.917 48.572535 108.49 108.4898 108.49z"/><path d="m59.4094 443.77c42.9196 0 77.7126-34.793 77.7126-77.713 0-42.919-34.793-77.713-77.7126-77.713-42.9194 0-77.7125 34.794-77.7125 77.713 0 42.92 34.7931 77.713 77.7125 77.713z"/><path d="m59.4088 412.992c25.9216 0 46.9352-21.014 46.9352-46.936 0-25.921-21.0136-46.935-46.9352-46.935-25.9217 0-46.9353 21.014-46.9353 46.935 0 25.922 21.0136 46.936 46.9353 46.936z"/></g></svg>