<?xml version="1.0" encoding="utf-8"?>
<!-- Generator: Adobe Illustrator 19.2.1, SVG Export Plug-In . SVG Version: 6.00 Build 0)  -->
<svg version="1.1" id="layer" xmlns="http://www.w3.org/2000/svg" xmlns:xlink="http://www.w3.org/1999/xlink" x="0px" y="0px"
	 viewBox="0 0 652 652" style="enable-background:new 0 0 652 652;" xml:space="preserve">
<style type="text/css">
	.st0{fill:#585858;}
	.st1{fill:#FFFFFF;}
	.st2{fill:#4A88C2;}
</style>
<g id="Keeptruckin-Logo">
	<g id="Group-7">
		<g id="Keep">
			<path id="Dark" class="st0" d="M27,369.9h150.6c0-47.8-0.3-95.7-0.3-95.7H26.9c-2.2,0-4.1,1.9-4.4,4.4c-1.3,11.4-4,44,0.1,86.8
				C22.8,368,24.7,369.9,27,369.9"/>
			<polygon id="Fill-4" class="st1" points="52.3,327.8 50,332.6 50,348.6 42.6,348.6 42.6,296.4 50,296.4 50,319.1 59.7,296.4 
				67.2,296.4 56.8,319.7 67.2,348.6 59.5,348.6 			"/>
			<polygon id="Fill-6" class="st1" points="84.1,318.4 94.4,318.4 94.4,325.8 84.1,325.8 84.1,341.1 97,341.1 97,348.6 76.7,348.6 
				76.7,296.4 97,296.4 97,303.8 84.1,303.8 			"/>
			<polygon id="Fill-8" class="st1" points="114.5,318.4 124.7,318.4 124.7,325.8 114.5,325.8 114.5,341.1 127.4,341.1 127.4,348.6 
				107.1,348.6 107.1,296.4 127.4,296.4 127.4,303.8 114.5,303.8 			"/>
			<path id="Fill-10" class="st1" d="M144.9,303.8v17.7h3.5c2.4,0,3.7-1.1,3.7-4.9v-7.8c0-3.8-1.3-4.9-3.7-4.9H144.9z M148.4,296.4
				c7.5,0,11.1,4.5,11.1,12.9v6.8c0,8.4-3.6,12.9-11.1,12.9h-3.5v19.6h-7.4v-52.2H148.4z"/>
		</g>
		<g id="Truckin" transform="translate(53.000000, 0.000000)">
			<g id="T">
				<polygon id="Fill-12" class="st2" points="127.7,369.9 187.1,369.9 187.1,274.2 127.7,274.2 				"/>
				<polygon id="Fill-14" class="st1" points="145.9,296.4 168.9,296.4 168.9,303.8 161.1,303.8 161.1,348.6 153.7,348.6 
					153.7,303.8 145.9,303.8 				"/>
			</g>
			<g id="R" transform="translate(21.694444, 0.000000)">
				<polygon id="Fill-15" class="st2" points="169.1,369.9 228.5,369.9 228.5,274.2 169.1,274.2 				"/>
				<path id="Fill-16" class="st1" d="M195.4,303.8v16h2.9c2.8,0,4.4-1.3,4.4-5.5v-5.1c0-3.8-1.1-5.4-3.8-5.4H195.4z M203.5,348.6
					c-0.1-0.4-0.2-0.7-0.3-1c-0.2-0.6-0.3-1.4-0.3-2.8c-0.1-0.7-0.1-1.6-0.1-2.6V334c0-4.9-1.4-6.6-4.9-6.6h-2.6v21.3H188v-52.2
					h11.2c7.7,0,11,4,11,12v4.1c0,5.4-1.6,8.9-4.9,10.6c3.8,1.7,4.9,5.7,4.9,11.1v8.1c0,2.6,0.1,4.3,0.8,6.3H203.5z"/>
			</g>
			<g id="U" transform="translate(42.768519, 0.000000)">
				<polygon id="Fill-17" class="st2" points="211.1,370.3 270.5,370.3 270.5,274.6 211.1,274.6 				"/>
				<path id="Fill-18" class="st1" d="M237.2,296.7V337c0,3.8,1.5,5.1,3.8,5.1c2.4,0,3.8-1.3,3.8-5.1v-40.3h7v39.8
					c0,8.4-3.8,13.1-11.1,13.1c-7.3,0-11.1-4.7-11.1-13.1v-39.8H237.2z"/>
			</g>
			<g id="C" transform="translate(63.462963, 0.000000)">
				<polygon id="Fill-19" class="st2" points="253.5,370.3 312.9,370.3 312.9,274.6 253.5,274.6 				"/>
				<path id="Fill-20" class="st1" d="M294.4,329.4v6.9c0,8.4-3.8,13.1-11.1,13.1c-7.3,0-11.1-4.7-11.1-13.1v-27.2
					c0-8.4,3.8-13.1,11.1-13.1c7.3,0,11.1,4.7,11.1,13.1v5.1h-7v-5.6c0-3.8-1.5-5.1-3.8-5.1s-3.8,1.3-3.8,5.1v28.2
					c0,3.8,1.5,5.1,3.8,5.1s3.8-1.3,3.8-5.1v-7.5H294.4z"/>
			</g>
			<g id="K" transform="translate(84.157407, 0.000000)">
				<polygon id="Fill-21" class="st2" points="295.8,370.1 355.1,370.1 355.1,274.4 295.8,274.4 				"/>
				<polygon id="Fill-22" class="st1" points="323.9,327.9 321.6,332.7 321.6,348.8 314.2,348.8 314.2,296.5 321.6,296.5 
					321.6,319.3 331.3,296.5 338.7,296.5 328.4,319.8 338.7,348.8 331.1,348.8 				"/>
			</g>
			<g id="I" transform="translate(105.851852, 0.000000)">
				<polygon id="Fill-23" class="st2" points="336.9,370.3 396.2,370.3 396.2,274.6 336.9,274.6 				"/>
				<polygon id="Fill-24" class="st1" points="362.9,348.9 370.3,348.9 370.3,296.7 362.9,296.7 				"/>
			</g>
			<g id="N" transform="translate(126.925926, 0.000000)">
				<path id="Fill-25" class="st2" d="M433,369.9h-54.4c-0.3-47.8,0-95.7,0-95.7h54.5c2.5,0,4.7,1.9,5,4.4c1.4,11.4,4.6,44-0.1,86.8
					C437.7,368,435.6,369.9,433,369.9"/>
				<polygon id="Fill-26" class="st1" points="402.5,310.8 402.5,348.6 395.9,348.6 395.9,296.4 405.2,296.4 412.8,327.6 
					412.8,296.4 419.4,296.4 419.4,348.6 411.8,348.6 				"/>
			</g>
		</g>
	</g>
</g>
</svg>