<svg width="23" height="23" viewBox="0 0 23 23" fill="none" xmlns="http://www.w3.org/2000/svg">
<g clip-path="url(#clip0_2776_8210)">
<path d="M6.70898 6.7085H5.75065C5.24232 6.7085 4.75481 6.91043 4.39536 7.26987C4.03592 7.62932 3.83398 8.11683 3.83398 8.62516V17.2502C3.83398 17.7585 4.03592 18.246 4.39536 18.6055C4.75481 18.9649 5.24232 19.1668 5.75065 19.1668H14.3757C14.884 19.1668 15.3715 18.9649 15.7309 18.6055C16.0904 18.246 16.2923 17.7585 16.2923 17.2502V16.2918" stroke="#9BA4BA" stroke-width="1.91667" stroke-linecap="round" stroke-linejoin="round"/>
<path d="M19.5356 6.31073C19.9131 5.93329 20.1251 5.42138 20.1251 4.8876C20.1251 4.35383 19.9131 3.84191 19.5356 3.46448C19.1582 3.08704 18.6463 2.875 18.1125 2.875C17.5787 2.875 17.0668 3.08704 16.6894 3.46448L8.625 11.5001V14.3751H11.5L19.5356 6.31073Z" stroke="#9BA4BA" stroke-width="1.91667" stroke-linecap="round" stroke-linejoin="round"/>
<path d="M15.334 4.7915L18.209 7.6665" stroke="#9BA4BA" stroke-width="1.91667" stroke-linecap="round" stroke-linejoin="round"/>
</g>
<defs>
<clipPath id="clip0_2776_8210">
<rect width="23" height="23" fill="white"/>
</clipPath>
</defs>
</svg>
