<svg xmlns="http://www.w3.org/2000/svg" xmlns:xlink="http://www.w3.org/1999/xlink" width="20" height="20" viewBox="0 0 20 20">
  <defs>
    <clipPath id="clip-path">
      <rect id="Rectangle_1953" data-name="Rectangle 1953" width="20" height="20" transform="translate(1731.52 73.5)" fill="#7367f0" stroke="#707070" stroke-width="1"/>
    </clipPath>
  </defs>
  <g id="Mask_Group_235" data-name="Mask Group 235" transform="translate(-1731.52 -73.5)" clip-path="url(#clip-path)">
    <path id="__TEMP__SVG__" d="M8,13a3,3,0,1,1,3-3A3,3,0,0,1,8,13Zm8,0a3,3,0,1,1,3-3A3,3,0,0,1,16,13ZM8,15a7.98,7.98,0,0,1,6,2.708V19H2V17.708A7.98,7.98,0,0,1,8,15Zm8,4V16.952l-.5-.567a10.057,10.057,0,0,0-1.25-1.193A8.015,8.015,0,0,1,22,17.708V19Z" transform="translate(1729.52 74.5)" fill="#7367f0"/>
    <g id="add" transform="translate(1737.764 70.5)" fill="#7367f0">
      <path d="M 8.3681640625 14.23632431030273 C 5.132453918457031 14.23632431030273 2.500004053115845 11.60387420654297 2.500004053115845 8.3681640625 C 2.500004053115845 5.132453918457031 5.132453918457031 2.500004053115845 8.3681640625 2.500004053115845 C 11.60387420654297 2.500004053115845 14.23632431030273 5.132453918457031 14.23632431030273 8.3681640625 C 14.23632431030273 11.60387420654297 11.60387420654297 14.23632431030273 8.3681640625 14.23632431030273 Z M 8.331343650817871 10.55224418640137 L 8.404984474182129 10.55224418640137 L 8.404984474182129 8.904984474182129 L 8.404984474182129 8.404984474182129 L 8.904984474182129 8.404984474182129 L 10.55224418640137 8.404984474182129 L 10.55224418640137 8.331343650817871 L 8.904984474182129 8.331343650817871 L 8.404984474182129 8.331343650817871 L 8.404984474182129 7.831344127655029 L 8.404984474182129 6.184083938598633 L 8.331343650817871 6.184083938598633 L 8.331343650817871 7.831344127655029 L 8.331343650817871 8.331343650817871 L 7.831344127655029 8.331343650817871 L 6.184083938598633 8.331343650817871 L 6.184083938598633 8.404984474182129 L 7.831344127655029 8.404984474182129 L 8.331343650817871 8.404984474182129 L 8.331343650817871 8.904984474182129 L 8.331343650817871 10.55224418640137 Z" stroke="none"/>
      <path d="M 8.3681640625 3.000003814697266 C 5.403504371643066 3.000003814697266 3.000003814697266 5.403504371643066 3.000003814697266 8.3681640625 C 3.000003814697266 11.33282470703125 5.403504371643066 13.73632431030273 8.3681640625 13.73632431030273 C 11.33282470703125 13.73632431030273 13.73632431030273 11.33282470703125 13.73632431030273 8.3681640625 C 13.73632431030273 5.403504371643066 11.33318424224854 3.000003814697266 8.3681640625 3.000003814697266 M 11.05224418640137 8.904983520507812 L 8.904983520507812 8.904983520507812 L 8.904983520507812 11.05224418640137 L 7.831343650817871 11.05224418640137 L 7.831343650817871 8.904983520507812 L 5.684083938598633 8.904983520507812 L 5.684083938598633 7.831343650817871 L 7.831343650817871 7.831343650817871 L 7.831343650817871 5.684083938598633 L 8.904983520507812 5.684083938598633 L 8.904983520507812 7.831343650817871 L 11.05224418640137 7.831343650817871 L 11.05224418640137 8.904983520507812 M 8.3681640625 2.000003814697266 C 11.87958335876465 2.000003814697266 14.73632431030273 4.856743812561035 14.73632431030273 8.3681640625 C 14.73632431030273 11.87958335876465 11.87958335876465 14.73632431030273 8.3681640625 14.73632431030273 C 4.856743812561035 14.73632431030273 2.000003814697266 11.87958335876465 2.000003814697266 8.3681640625 C 2.000003814697266 4.856743812561035 4.856743812561035 2.000003814697266 8.3681640625 2.000003814697266 Z" stroke="none" fill="#fff"/>
    </g>
  </g>
</svg>