<?xml version="1.0" encoding="UTF-8"?>
<!-- Generator: visioncortex VTracer 0.6.2 -->
<svg version="1.1" xmlns="http://www.w3.org/2000/svg" width="1280" height="1280">
  <path stroke="currentColor" stroke-width="40"
    d="M0 0 C1.85044922 0.4640625 1.85044922 0.4640625 3.73828125 0.9375 C10.0003649 2.51078639 15.99719489 4.17044734 21.81494141 7.0090332 C23.92208709 7.96466497 25.99264362 8.68898996 28.19921875 9.37890625 C32.92119764 10.92404375 37.41459121 12.82689036 41.9375 14.875 C43.10611572 15.39900391 43.10611572 15.39900391 44.29833984 15.93359375 C49.93887058 18.47858243 55.51477494 21.13334972 61 24 C61 24.66 61 25.32 61 26 C61.72832031 26.11102051 62.45664062 26.22204102 63.20703125 26.33642578 C66.14811474 27.0351902 68.11942863 28.04185612 70.6875 29.6171875 C71.55117188 30.14183594 72.41484375 30.66648438 73.3046875 31.20703125 C74.19414063 31.75746094 75.08359375 32.30789062 76 32.875 C76.88945313 33.41769531 77.77890625 33.96039063 78.6953125 34.51953125 C80.35753023 35.53422834 82.01790993 36.55194738 83.67578125 37.57373047 C85.35836089 38.60625466 87.06819591 39.59479091 88.79296875 40.55517578 C89.52128906 41.03196777 90.24960937 41.50875977 91 42 C91 42.66 91 43.32 91 44 C91.58394531 44.11537109 92.16789063 44.23074219 92.76953125 44.34960938 C95.16132342 45.04704089 96.66834428 45.96066996 98.6875 47.40625 C99.38077393 47.89875244 100.07404785 48.39125488 100.78833008 48.89868164 C101.51818115 49.4271167 102.24803223 49.95555176 103 50.5 C103.75240967 51.03810303 104.50481934 51.57620605 105.2800293 52.13061523 C111.59075163 56.66033984 117.81804811 61.29612385 124 66 C124.76699219 66.53496094 125.53398438 67.06992188 126.32421875 67.62109375 C127.15373047 68.30365234 127.15373047 68.30365234 128 69 C128 69.66 128 70.32 128 71 C128.804375 71.37125 128.804375 71.37125 129.625 71.75 C132.5823982 73.30652537 135.29724051 75.03435673 138 77 C138 77.66 138 78.32 138 79 C138.51949219 79.21140625 139.03898438 79.4228125 139.57421875 79.640625 C143.03443117 81.57968124 145.83853602 84.14181769 148.8125 86.75 C149.69905273 87.51957031 149.69905273 87.51957031 150.60351562 88.3046875 C151.79636174 89.34013516 152.98664108 90.37854729 154.17431641 91.41992188 C155.43940795 92.51482325 156.71886544 93.59326052 158.00927734 94.65820312 C158.64945801 95.18865234 159.28963867 95.71910156 159.94921875 96.265625 C160.53405029 96.74290039 161.11888184 97.22017578 161.72143555 97.71191406 C163 99 163 99 163 101 C163.99 101.33 164.98 101.66 166 102 C166 102.66 166 103.32 166 104 C166.66 104 167.32 104 168 104 C168 104.66 168 105.32 168 106 C168.5662207 106.24169922 169.13244141 106.48339844 169.71582031 106.73242188 C172.4522274 108.25095817 174.33069338 110.07151881 176.546875 112.28125 C177.39121094 113.12300781 178.23554687 113.96476562 179.10546875 114.83203125 C179.97816406 115.71246094 180.85085938 116.59289062 181.75 117.5 C183.08224609 118.82064453 183.08224609 118.82064453 184.44140625 120.16796875 C185.28058594 121.00972656 186.11976563 121.85148437 186.984375 122.71875 C187.75491211 123.49154297 188.52544922 124.26433594 189.31933594 125.06054688 C191 127 191 127 191 129 C191.66 129 192.32 129 193 129 C193 129.66 193 130.32 193 131 C193.99 131.33 194.98 131.66 196 132 C196 132.66 196 133.32 196 134 C196.66 134 197.32 134 198 134 C199.33984375 135.328125 199.33984375 135.328125 200.9375 137.25 C204.52171412 141.47291056 208.23641307 145.55156935 212.00366211 149.61035156 C221 159.35461901 221 159.35461901 221 162 C221.66 162 222.32 162 223 162 C224.69140625 163.86328125 224.69140625 163.86328125 226.5625 166.3125 C227.18253906 167.11300781 227.80257812 167.91351563 228.44140625 168.73828125 C230 171 230 171 231 174 C231.66 174 232.32 174 233 174 C234.48324737 175.77989685 235.88670982 177.62663526 237.25 179.5 C238.05581085 180.60169325 238.86180103 181.70325536 239.66796875 182.8046875 C240.43753906 183.85914063 241.20710937 184.91359375 242 186 C243.66166902 188.16387731 245.32796584 190.32372848 247.00390625 192.4765625 C248 194 248 194 248 196 C248.66 196 249.32 196 250 196 C251.22998047 197.38256836 251.22998047 197.38256836 252.6171875 199.33984375 C253.13563232 200.06453857 253.65407715 200.7892334 254.18823242 201.53588867 C254.74486572 202.32842041 255.30149902 203.12095215 255.875 203.9375 C256.45290283 204.75001221 257.03080566 205.56252441 257.6262207 206.3996582 C258.83108149 208.09572263 260.03293892 209.79392422 261.23193359 211.49414062 C262.8724423 213.81921399 264.5221792 216.13735389 266.17578125 218.453125 C274.588675 230.26199965 282.69077101 242.25402283 290.41796875 254.5234375 C291.9238338 256.88076698 293.48378072 259.19107206 295.0625 261.5 C297.82623185 265.61260894 300.17301279 269.89064828 302.5078125 274.2578125 C303.90198695 276.81988178 305.36248707 279.3188976 306.875 281.8125 C312.51341837 291.12622249 317.85052649 300.51363954 322.6484375 310.2890625 C323.81440592 312.62773903 325.03046079 314.9112263 326.3125 317.1875 C333.20818424 329.43905549 339.83191962 341.82072439 344.9375 354.9375 C346.37298064 358.61555883 348.0413099 362.06658172 349.875 365.5625 C352.75798728 371.19742969 354.85023588 376.94502818 356.88574219 382.92089844 C358.39735776 387.34791524 360.08575436 391.58739316 362.06640625 395.828125 C363.65026264 399.51274488 364.82559697 403.33235747 366.0625 407.14453125 C367.48670136 411.48241122 369.10901732 415.73690399 370.78125 419.984375 C372.31142437 423.93222487 373.5029275 427.81665735 374.46875 431.9375 C375.03882169 434.15071951 375.75043693 436.27875836 376.5 438.4375 C377.76806824 442.14659961 378.6782762 445.82967092 379.4765625 449.6640625 C380.01397657 452.06237303 380.683177 454.39185064 381.375 456.75 C383.23460205 463.38194811 384.41460591 470.14359323 385.64208984 476.91503906 C385.80402832 477.80030273 385.9659668 478.68556641 386.1328125 479.59765625 C386.27605957 480.39695557 386.41930664 481.19625488 386.56689453 482.01977539 C386.92854183 484.06189928 386.92854183 484.06189928 388 486 C388.18190336 487.66311644 388.32133402 489.33100311 388.4375 491 C388.73268812 494.57915596 389.14829382 497.99789756 389.9375 501.5 C393.01763181 516.06859985 393.37425285 531.04079144 393.3125 545.875 C393.31134186 546.74475464 393.31018372 547.61450928 393.30899048 548.51062012 C393.27478972 561.52961097 392.78061257 574.23446047 390 587 C389.64035156 588.69189453 389.64035156 588.69189453 389.2734375 590.41796875 C388.59323032 593.30698056 387.81632155 596.1468373 387 599 C386.71382812 600.11375 386.42765625 601.2275 386.1328125 602.375 C383.91771029 610.72282321 380.89458139 618.29846531 377 626 C376.525625 626.94746094 376.05125 627.89492188 375.5625 628.87109375 C371.98605056 635.72271564 367.67108935 641.85487819 363 648 C362.46761719 648.76441406 361.93523438 649.52882813 361.38671875 650.31640625 C360.92910156 650.87199219 360.47148438 651.42757812 360 652 C359.34 652 358.68 652 358 652 C357.62294922 652.87785156 357.62294922 652.87785156 357.23828125 653.7734375 C354.59180981 658.532077 349.84997888 662.11355178 345 664.4375 C344.34 664.623125 343.68 664.80875 343 665 C343 665.66 343 666.32 343 667 C326.49382708 679.23780087 307.73536942 683.00479364 287.64453125 683.7890625 C284.18484464 683.90121145 284.18484464 683.90121145 281.57983398 684.49780273 C279.03301768 684.99357269 276.66888425 685.17133126 274.078125 685.24609375 C273.14363525 685.27767578 272.20914551 685.30925781 271.24633789 685.34179688 C270.25754639 685.37337891 269.26875488 685.40496094 268.25 685.4375 C260.44796383 685.72680482 252.76877832 686.25040004 245.02929688 687.26708984 C238.82670061 688.07029291 232.63566546 688.44418258 226.390625 688.75390625 C223.14441111 688.91505491 223.14441111 688.91505491 220.58203125 689.5 C218.1063714 689.9794016 215.81379241 690.16959718 213.296875 690.24609375 C212.40774414 690.27767578 211.51861328 690.30925781 210.60253906 690.34179688 C209.66120117 690.37337891 208.71986328 690.40496094 207.75 690.4375 C200.17715491 690.7313493 192.73031023 691.2794785 185.21850586 692.26708984 C179.17797248 693.03964036 173.14420394 693.39959024 167.06152344 693.65820312 C164.03009965 693.79404196 161.08658687 693.98510333 158.09375 694.5 C153.80106632 695.19376706 149.5284911 695.28263392 145.1875 695.4375 C137.80073688 695.74025722 130.53205802 696.31076199 123.203125 697.26708984 C117.32292404 698.01616898 111.45099462 698.39553645 105.53027344 698.65820312 C101.78346165 698.81422829 101.78346165 698.81422829 98.109375 699.5 C95.61550922 700.09113855 93.30048581 700.17932401 90.73828125 700.24609375 C89.71025391 700.27767578 88.68222656 700.30925781 87.62304688 700.34179688 C86.53056641 700.37337891 85.43808594 700.40496094 84.3125 700.4375 C76.14230201 700.71374165 68.10039031 701.18601939 59.99829102 702.26708984 C54.2153716 703.02618258 48.44260974 703.39680597 42.6171875 703.65820312 C39.88948666 703.78821999 37.2599249 703.94625139 34.58203125 704.5 C32.03495269 704.99323155 29.66869123 705.17133683 27.078125 705.24609375 C26.14379639 705.27767578 25.20946777 705.30925781 24.24682617 705.34179688 C23.25787354 705.37337891 22.2689209 705.40496094 21.25 705.4375 C13.49264664 705.72474177 5.86364117 706.24858441 -1.83007812 707.26708984 C-7.88323361 708.04790588 -13.9303343 708.40193067 -20.02661133 708.65820312 C-22.87278907 708.78517498 -25.62615381 708.92277993 -28.4206543 709.5 C-31.02367035 710.00458844 -33.44942171 710.17249726 -36.09765625 710.24609375 C-37.53999634 710.29358765 -37.53999634 710.29358765 -39.01147461 710.34204102 C-40.01831299 710.37354248 -41.02515137 710.40504395 -42.0625 710.4375 C-50.19842267 710.73306157 -58.03206184 711.23505886 -66 713 C-65.34 714.98 -64.68 716.96 -64 719 C-63.34 719 -62.68 719 -62 719 C-62 719.99 -62 720.98 -62 722 C-61.34 722 -60.68 722 -60 722 C-58.4921875 723.86328125 -58.4921875 723.86328125 -56.875 726.3125 C-56.33617187 727.11300781 -55.79734375 727.91351562 -55.2421875 728.73828125 C-54 731 -54 731 -54 734 C-53.34 734 -52.68 734 -52 734 C-50.484375 736.08984375 -50.484375 736.08984375 -48.75 738.9375 C-45.96734518 743.45275122 -43.08595297 747.86284075 -40.06640625 752.22265625 C-39 754 -39 754 -39 756 C-38.34 756 -37.68 756 -37 756 C-37 756.99 -37 757.98 -37 759 C-36.34 759 -35.68 759 -35 759 C-33.5546875 760.984375 -33.5546875 760.984375 -31.875 763.75 C-26.12430594 773.03683513 -20.09973303 782.03861886 -13.46875 790.72265625 C-12 793 -12 793 -12 796 C-11.34 796 -10.68 796 -10 796 C-8.484375 798.125 -8.484375 798.125 -6.75 801 C-4.56574361 804.5420374 -2.35892282 807.95844073 0.1875 811.25 C2.30903101 814.01021181 4.06072655 816.80010693 5.72265625 819.8671875 C7.93884921 823.56761978 10.48796235 827.0552853 13.00317383 830.55737305 C16 834.78748678 16 834.78748678 16 837 C16.66 837 17.32 837 18 837 C19.515625 839.08984375 19.515625 839.08984375 21.25 841.9375 C24.03265482 846.45275122 26.91404703 850.86284075 29.93359375 855.22265625 C31 857 31 857 31 859 C31.66 859 32.32 859 33 859 C33.86625 860.546875 33.86625 860.546875 34.75 862.125 C36.15518443 864.5991283 37.63215318 866.97240014 39.25 869.3125 C41 872 41 872 41 874 C41.66 874 42.32 874 43 874 C44.515625 876.08984375 44.515625 876.08984375 46.25 878.9375 C49.03265482 883.45275122 51.91404703 887.86284075 54.93359375 892.22265625 C56 894 56 894 56 896 C56.66 896 57.32 896 58 896 C58.804375 897.485 58.804375 897.485 59.625 899 C61.70349348 902.67848487 64.17617644 905.92101044 66.828125 909.203125 C68 911 68 911 68 914 C68.66 914 69.32 914 70 914 C71.515625 916.125 71.515625 916.125 73.25 919 C75.43425639 922.5420374 77.64107718 925.95844073 80.1875 929.25 C82.40514154 932.12883809 84.20483422 935.04164616 85.94140625 938.2265625 C87.13978423 940.23417727 88.50355207 942.02874643 89.9375 943.875 C95.02235582 950.54807275 98.37402854 957.47132193 101.09765625 965.390625 C101.85167211 967.57106912 102.68358524 969.68124555 103.5625 971.8125 C110.19174021 990.09754717 110.18248456 1011.3386071 105 1030 C104.70996094 1031.11246094 104.41992188 1032.22492188 104.12109375 1033.37109375 C101.12269067 1044.02232478 96.29667734 1053.9047994 90 1063 C89.34 1063 88.68 1063 88 1063 C87.79375 1063.680625 87.5875 1064.36125 87.375 1065.0625 C85.57104973 1068.91639375 83.0989655 1072.07787764 80 1075 C79.34 1075 78.68 1075 78 1075 C78 1075.66 78 1076.32 78 1077 C68.97169609 1085.68184529 57.56444697 1092.33324483 46 1097 C44.80375 1097.53625 43.6075 1098.0725 42.375 1098.625 C39.62675397 1099.74465579 36.95153494 1100.72384539 34.078125 1101.4609375 C32.55458843 1101.8561406 31.04523027 1102.30710746 29.546875 1102.7890625 C11.74069395 1107.88334424 -10.2161298 1106.91691991 -27 1099 C-30.65117212 1097.62332854 -34.32424088 1096.30944764 -38 1095 C-38 1094.34 -38 1093.68 -38 1093 C-39.65 1092.67 -41.3 1092.34 -43 1092 C-43 1091.34 -43 1090.68 -43 1090 C-43.5775 1089.87625 -44.155 1089.7525 -44.75 1089.625 C-47.02335767 1088.99351176 -48.9253529 1088.11141809 -51 1087 C-51 1086.34 -51 1085.68 -51 1085 C-51.54140625 1084.92652344 -52.0828125 1084.85304688 -52.640625 1084.77734375 C-55.93799253 1083.69095941 -58.08308626 1081.7672898 -60.75 1079.5625 C-61.73484375 1078.75941406 -62.7196875 1077.95632813 -63.734375 1077.12890625 C-64.48203125 1076.42636719 -65.2296875 1075.72382812 -66 1075 C-66 1074.34 -66 1073.68 -66 1073 C-66.66 1073 -67.32 1073 -68 1073 C-69.625 1071.625 -69.625 1071.625 -71 1070 C-71 1069.34 -71 1068.68 -71 1068 C-71.66 1068 -72.32 1068 -73 1068 C-74.73082971 1065.97228698 -76.34408286 1063.94395409 -77.9375 1061.8125 C-78.38029297 1061.23435547 -78.82308594 1060.65621094 -79.27929688 1060.06054688 C-86 1051.19643023 -86 1051.19643023 -86 1048 C-86.66 1048 -87.32 1048 -88 1048 C-88 1047.01 -88 1046.02 -88 1045 C-88.66 1045 -89.32 1045 -90 1045 C-91.4453125 1043.015625 -91.4453125 1043.015625 -93.125 1040.25 C-98.87569406 1030.96316487 -104.90026697 1021.96138114 -111.53125 1013.27734375 C-113 1011 -113 1011 -113 1008 C-113.66 1008 -114.32 1008 -115 1008 C-116.48046875 1005.9453125 -116.48046875 1005.9453125 -118.1875 1003.125 C-120.43550147 999.49042385 -122.70868411 995.91877819 -125.1875 992.4375 C-128.67338992 987.50448606 -132.06624601 982.51175008 -135.4375 977.5 C-135.98237061 976.69747803 -136.52724121 975.89495605 -137.08862305 975.06811523 C-137.59433838 974.31344971 -138.10005371 973.55878418 -138.62109375 972.78125 C-139.0792749 972.10126953 -139.53745605 971.42128906 -140.00952148 970.72070312 C-141 969 -141 969 -141 967 C-141.66 967 -142.32 967 -143 967 C-144.515625 964.91015625 -144.515625 964.91015625 -146.25 962.0625 C-149.03265482 957.54724878 -151.91404703 953.13715925 -154.93359375 948.77734375 C-156 947 -156 947 -156 945 C-156.66 945 -157.32 945 -158 945 C-158.86625 943.4221875 -158.86625 943.4221875 -159.75 941.8125 C-161.12385176 939.38372635 -162.46453865 937.43223053 -164.25 935.25 C-166 933 -166 933 -166 930 C-166.66 930 -167.32 930 -168 930 C-169.515625 927.91015625 -169.515625 927.91015625 -171.25 925.0625 C-174.03265482 920.54724878 -176.91404703 916.13715925 -179.93359375 911.77734375 C-181 910 -181 910 -181 908 C-181.66 908 -182.32 908 -183 908 C-183 907.01 -183 906.02 -183 905 C-183.66 905 -184.32 905 -185 905 C-186.4453125 903.015625 -186.4453125 903.015625 -188.125 900.25 C-193.87569406 890.96316487 -199.90026697 881.96138114 -206.53125 873.27734375 C-208 871 -208 871 -208 868 C-208.66 868 -209.32 868 -210 868 C-211.48046875 865.9453125 -211.48046875 865.9453125 -213.1875 863.125 C-216.11973867 858.36471295 -219.22146597 853.80220446 -222.51953125 849.2890625 C-224.04354545 846.93267115 -225.0463568 844.63298561 -226 842 C-226.66 842 -227.32 842 -228 842 C-228.7734375 840.576875 -228.7734375 840.576875 -229.5625 839.125 C-231.23694262 836.19907086 -233.05075012 833.43741976 -235 830.6875 C-238.552532 825.67353252 -242.00886691 820.59913485 -245.4375 815.5 C-245.98212891 814.69780029 -246.52675781 813.89560059 -247.08789062 813.0690918 C-247.59384766 812.314104 -248.09980469 811.55911621 -248.62109375 810.78125 C-249.0792749 810.10126953 -249.53745605 809.42128906 -250.00952148 808.72070312 C-251 807 -251 807 -251 805 C-251.66 805 -252.32 805 -253 805 C-253 804.01 -253 803.02 -253 802 C-253.66 802 -254.32 802 -255 802 C-258 797.61538462 -258 797.61538462 -258 795 C-258.72703125 795.43570313 -259.4540625 795.87140625 -260.203125 796.3203125 C-291.18063295 814.66852875 -321.20556192 821.62667914 -357 821 C-357.69593262 820.99274902 -358.39186523 820.98549805 -359.10888672 820.97802734 C-390.8867896 820.51588875 -425.96126226 805.84023625 -450 785 C-450 784.34 -450 783.68 -450 783 C-450.88751953 782.58621094 -450.88751953 782.58621094 -451.79296875 782.1640625 C-458.2388494 778.76428828 -463.70243204 772.79975737 -468 767 C-468 766.34 -468 765.68 -468 765 C-468.66 765 -469.32 765 -470 765 C-471.5078125 763.3203125 -471.5078125 763.3203125 -473.125 761.125 C-473.66382813 760.40570312 -474.20265625 759.68640625 -474.7578125 758.9453125 C-476 757 -476 757 -476 755 C-476.66 755 -477.32 755 -478 755 C-479.515625 752.91015625 -479.515625 752.91015625 -481.25 750.0625 C-484.01767359 745.5657557 -486.8941929 741.19206021 -489.93359375 736.875 C-491 735 -491 735 -491 732 C-491.66 732 -492.32 732 -493 732 C-493.268125 731.278125 -493.53625 730.55625 -493.8125 729.8125 C-494.91104656 727.00966891 -494.91104656 727.00966891 -496.44921875 724.65625 C-497.98079796 722.03289015 -499.00506091 719.55209548 -500 716.6875 C-500.33902344 715.72457031 -500.67804688 714.76164063 -501.02734375 713.76953125 C-501.50880859 712.39861328 -501.50880859 712.39861328 -502 711 C-502.5165408 709.62338169 -503.03689313 708.24818235 -503.5625 706.875 C-504.04225489 705.5835517 -504.52142662 704.2918866 -505 703 C-505.24621094 702.36320313 -505.49242187 701.72640625 -505.74609375 701.0703125 C-513.86692017 678.76959746 -516.41638805 645.68542226 -509 623 C-508.69311519 621.48216431 -508.40309562 619.96087333 -508.125 618.4375 C-506.40520009 609.63696141 -504.31582971 600.786835 -499.9765625 592.88671875 C-498.90903732 590.8242601 -498.15848593 588.74820608 -497.375 586.5625 C-495.35924279 581.38493008 -492.66398738 576.66525685 -489.875 571.875 C-489.43075684 571.10357666 -488.98651367 570.33215332 -488.52880859 569.53735352 C-487.89193115 568.46312134 -487.89193115 568.46312134 -487.2421875 567.3671875 C-486.8591748 566.71862793 -486.47616211 566.07006836 -486.08154297 565.40185547 C-485.72463379 564.93924316 -485.36772461 564.47663086 -485 564 C-484.34 564 -483.68 564 -483 564 C-483 563.01 -483 562.02 -483 561 C-482.34 561 -481.68 561 -481 561 C-480.67 559.68 -480.34 558.36 -480 557 C-479.34 557 -478.68 557 -478 557 C-477.731875 556.195625 -477.46375 555.39125 -477.1875 554.5625 C-476.795625 553.716875 -476.40375 552.87125 -476 552 C-475.01 551.67 -474.02 551.34 -473 551 C-472.31379969 549.67661368 -471.65213539 548.34050052 -471 547 C-467.26595799 542.05788558 -462.97618131 537.71291233 -458 534 C-457.34 534 -456.68 534 -456 534 C-455.67 533.01 -455.34 532.02 -455 531 C-453.46533203 529.55786133 -453.46533203 529.55786133 -451.5078125 528.08203125 C-450.45013672 527.28442383 -450.45013672 527.28442383 -449.37109375 526.47070312 C-448.62988281 525.92349609 -447.88867188 525.37628906 -447.125 524.8125 C-446.02478516 523.97428711 -446.02478516 523.97428711 -444.90234375 523.11914062 C-444.19464844 522.59126953 -443.48695313 522.06339844 -442.7578125 521.51953125 C-442.1095752 521.03589111 -441.46133789 520.55225098 -440.79345703 520.05395508 C-439 519 -439 519 -436 519 C-436 518.34 -436 517.68 -436 517 C-434.015625 515.5546875 -434.015625 515.5546875 -431.25 513.875 C-421.85938437 508.06290542 -412.75605319 501.85471604 -403.6875 495.5546875 C-393.05781801 488.17886928 -382.38459483 480.86098197 -371.59375 473.72265625 C-369.83568322 472.55502455 -368.0858658 471.37489352 -366.34375 470.18359375 C-365.5290625 469.62800781 -364.714375 469.07242187 -363.875 468.5 C-363.17117188 468.0153125 -362.46734375 467.530625 -361.7421875 467.03125 C-360 466 -360 466 -358 466 C-358 465.34 -358 464.68 -358 464 C-356.4221875 463.13375 -356.4221875 463.13375 -354.8125 462.25 C-352.38372635 460.87614824 -350.43223053 459.53546135 -348.25 457.75 C-346 456 -346 456 -343 456 C-343 455.34 -343 454.68 -343 454 C-342.01 454 -341.02 454 -340 454 C-340 453.34 -340 452.68 -340 452 C-337.85670959 450.47954612 -335.61738904 449.17112681 -333.359375 447.828125 C-327.98307976 443.6623863 -325.56884251 437.22262097 -322.8125 431.1875 C-319.42888189 423.89730222 -315.84927611 416.75531445 -312.00708008 409.69604492 C-309.7610775 405.54644025 -307.83402649 401.35329365 -306 397 C-305.05817118 395.07516952 -304.10016392 393.15815859 -303.125 391.25 C-300.25570937 385.56880455 -297.58678431 379.81454173 -295 374 C-294.34 374 -293.68 374 -293 374 C-292.9175 373.35546875 -292.835 372.7109375 -292.75 372.046875 C-291.71299225 367.83403101 -289.88358717 364.14581532 -288 360.25 C-287.60135742 359.41670166 -287.20271484 358.58340332 -286.79199219 357.72485352 C-283.05461906 349.97969732 -279.03622052 342.39466002 -274.97070312 334.81835938 C-273.62004699 332.28825704 -272.3005258 329.74370589 -271 327.1875 C-270.443125 326.09501953 -270.443125 326.09501953 -269.875 324.98046875 C-269.0011483 323.00259906 -268.45523113 321.11018595 -268 319 C-267.34 319 -266.68 319 -266 319 C-265.87625 318.278125 -265.7525 317.55625 -265.625 316.8125 C-265.0095069 314.04278106 -264.11555626 311.6029646 -263 309 C-262.34 309 -261.68 309 -261 309 C-260.9175 308.35546875 -260.835 307.7109375 -260.75 307.046875 C-259.712984 302.83399749 -257.88350181 299.14587066 -256 295.25 C-255.59700684 294.40727539 -255.19401367 293.56455078 -254.77880859 292.69628906 C-251.84553827 286.61525801 -248.72892498 280.65035681 -245.52416992 274.70922852 C-240.75399785 265.79260472 -236.51490213 256.61639319 -232.18359375 247.48144531 C-229.8632676 242.61680114 -227.43650516 237.80715883 -225 233 C-220.73664438 224.57309975 -216.5658401 216.1163931 -212.5625 207.5625 C-208.62445144 199.16269446 -204.34809933 190.9775686 -199.96191406 182.80517578 C-196.68072584 176.64753473 -193.7336677 170.41817633 -191 164 C-189.31197763 160.4462687 -187.60211953 156.95335592 -185.5 153.625 C-184.16439699 151.28769474 -183.25749559 149.13398393 -182.3125 146.625 C-180.61465258 142.25818787 -178.55624346 138.16815403 -176.3125 134.0625 C-172.74389434 127.52215497 -169.51230163 120.86201489 -166.35449219 114.11499023 C-163.99464559 109.0803475 -161.57182625 104.08673733 -159.0625 99.125 C-155.93658839 92.94379225 -152.95333867 86.70283707 -150 80.4375 C-147.11894614 74.33425802 -144.16924598 68.30040951 -140.9375 62.375 C-136.25240256 53.76170225 -132.12765613 44.8908906 -128 36 C-127.34 36 -126.68 36 -126 36 C-125.67 34.68 -125.34 33.36 -125 32 C-124.34 32 -123.68 32 -123 32 C-122.773125 31.443125 -122.54625 30.88625 -122.3125 30.3125 C-120.61856764 27.32795251 -118.48385302 25.37345955 -116 23 C-115.4946875 22.46246094 -114.989375 21.92492187 -114.46875 21.37109375 C-105.25792137 11.66062112 -93.78037779 5.06446136 -81.1875 0.796875 C-79.05290695 0.19369555 -79.05290695 0.19369555 -78 -1 C-51.90040615 -8.12932544 -25.96635426 -7.28880119 0 0 Z M-69 53 C-69 53.66 -69 54.32 -69 55 C-69.804375 55.12375 -69.804375 55.12375 -70.625 55.25 C-73.87340691 56.27581271 -76.28751859 57.96563894 -79 60 C-79 60.66 -79 61.32 -79 62 C-79.99 62.33 -80.98 62.66 -82 63 C-82 63.66 -82 64.32 -82 65 C-82.66 65 -83.32 65 -84 65 C-85.58826222 66.71497772 -85.58826222 66.71497772 -87.125 68.875 C-87.66382813 69.59429687 -88.20265625 70.31359375 -88.7578125 71.0546875 C-90.17939632 72.89626006 -90.17939632 72.89626006 -90 75 C-90.66 75 -91.32 75 -92 75 C-94.57544627 81.26212571 -97.07281654 87.50605712 -99 94 C-99.2585376 94.85408447 -99.5170752 95.70816895 -99.78344727 96.58813477 C-102.71511588 107.97383248 -102.45317097 119.39859559 -102.39111328 131.08374023 C-102.3751125 134.66233919 -102.39098142 138.2397959 -102.41015625 141.81835938 C-102.42156778 155.19550593 -101.53920475 167.87150628 -99 181 C-98.63729091 183.26948456 -98.28122247 185.54006234 -97.9375 187.8125 C-97.28784339 191.71043964 -96.30321339 195.26412161 -95 199 C-94.65596692 201.33177975 -94.32050798 203.66487041 -94 206 C-93.67 206.33 -93.34 206.66 -93 207 C-92.6484274 208.32356743 -92.34403777 209.65978714 -92.0625 211 C-91.8871875 211.81339844 -91.711875 212.62679687 -91.53125 213.46484375 C-91.19259502 215.08092522 -90.85874671 216.69802668 -90.53125 218.31640625 C-89.61472302 222.70809803 -88.43203502 226.79102973 -86.7890625 230.96484375 C-84.98471359 235.61863475 -83.45363468 240.36811949 -82.1171875 245.17578125 C-80.79056061 249.71692713 -79.26012811 254.16418398 -77.6875 258.625 C-77.37627197 259.50873291 -77.06504395 260.39246582 -76.74438477 261.30297852 C-73.0495167 271.74400354 -69.11935592 281.93713225 -64.39453125 291.9609375 C-63.2039977 294.55543358 -62.1374258 297.14540471 -61.125 299.8125 C-59.15303909 304.86007073 -56.72791702 309.65779761 -54.27172852 314.48144531 C-51.98067361 318.99341545 -49.80410231 323.54423665 -47.68359375 328.13867188 C-44.22013202 335.62674853 -40.51607293 342.77690708 -36.16430664 349.78710938 C-33.8888544 353.46295505 -31.86680011 357.16433339 -30 361.0625 C-27.44876721 366.3431243 -24.41541625 371.1536863 -21.19555664 376.03979492 C-18.44122167 380.23960867 -16.09688138 384.44156223 -14 389 C-13.34 389 -12.68 389 -12 389 C-11.88591797 389.57669434 -11.77183594 390.15338867 -11.65429688 390.74755859 C-10.93971804 393.20752291 -9.94298557 394.90677466 -8.53125 397.0390625 C-8.04269531 397.78414062 -7.55414062 398.52921875 -7.05078125 399.296875 C-6.53902344 400.06515625 -6.02726562 400.8334375 -5.5 401.625 C-4.48880841 403.15834341 -3.47835594 404.69217458 -2.46875 406.2265625 C-2.01951172 406.90283691 -1.57027344 407.57911133 -1.10742188 408.27587891 C0 410 0 410 1 412 C1.66 412 2.32 412 3 412 C3.10723389 412.57580811 3.21446777 413.15161621 3.32495117 413.74487305 C4.09632896 416.32180491 5.19431359 417.92958116 6.80078125 420.08203125 C7.36603516 420.84966797 7.93128906 421.61730469 8.51367188 422.40820312 C9.10728516 423.20162109 9.70089844 423.99503906 10.3125 424.8125 C14.22237782 430.06463931 17.88274322 435.23499918 21 441 C21.66 441 22.32 441 23 441 C23.20625 441.66 23.4125 442.32 23.625 443 C25.49124252 447.07180186 27.97561527 450.68796998 31 454 C31.66 454 32.32 454 33 454 C33.20625 454.66 33.4125 455.32 33.625 456 C35.49124252 460.07180186 37.97561527 463.68796998 41 467 C41.66 467 42.32 467 43 467 C43.268125 467.57234375 43.53625 468.1446875 43.8125 468.734375 C45.04132636 471.07884634 46.42522176 473.12404938 48 475.25 C48.515625 475.95640625 49.03125 476.6628125 49.5625 477.390625 C50.036875 477.92171875 50.51125 478.4528125 51 479 C51.66 479 52.32 479 53 479 C53.268125 479.57234375 53.53625 480.1446875 53.8125 480.734375 C55.04132636 483.07884634 56.42522176 485.12404938 58 487.25 C58.515625 487.95640625 59.03125 488.6628125 59.5625 489.390625 C60.036875 489.92171875 60.51125 490.4528125 61 491 C61.66 491 62.32 491 63 491 C63.268125 491.5775 63.53625 492.155 63.8125 492.75 C65.02929189 495.05550043 66.30333879 497.02056192 68 499 C68.66 499 69.32 499 70 499 C70.2475 499.556875 70.495 500.11375 70.75 500.6875 C72.22924818 503.42410913 73.93467439 505.67650869 76 508 C76.66 508 77.32 508 78 508 C78.33 508.99 78.66 509.98 79 511 C79.66 511 80.32 511 81 511 C81.25652344 511.58523438 81.51304687 512.17046875 81.77734375 512.7734375 C83.10562162 515.19234608 84.56524801 516.73198872 86.5625 518.625 C89.90277778 521.80555556 89.90277778 521.80555556 91 524 C91.66 524 92.32 524 93 524 C93 524.66 93 525.32 93 526 C94.33333333 527.66666667 94.33333333 527.66666667 96 529 C96.66 529 97.32 529 98 529 C98 529.66 98 530.32 98 531 C99.58438921 532.60270119 99.58438921 532.60270119 101.625 534.25 C104.34047759 536.54660073 106.91262264 538.87150775 109.375 541.4375 C111.62712763 544.23284557 111.62712763 544.23284557 114 544 C114 544.66 114 545.32 114 546 C115.48426233 547.58191818 115.48426233 547.58191818 117.375 549.125 C118.00148438 549.66382813 118.62796875 550.20265625 119.2734375 550.7578125 C120.91608428 552.19467147 120.91608428 552.19467147 123 552 C123 552.66 123 553.32 123 554 C126.47998507 557.63633539 126.47998507 557.63633539 131 559 C131 559.66 131 560.32 131 561 C132.91035013 562.78206021 132.91035013 562.78206021 135.3125 564.5625 C136.11300781 565.18253906 136.91351562 565.80257812 137.73828125 566.44140625 C139.99968203 568.15429792 139.99968203 568.15429792 143 569 C143 569.66 143 570.32 143 571 C145.21814024 572.7288446 147.43606469 574.34666947 149.75 575.9375 C151.01585609 576.82128368 152.28148687 577.70539017 153.546875 578.58984375 C154.14693359 579.00476074 154.74699219 579.41967773 155.36523438 579.84716797 C156.71417212 580.798435 158.02673545 581.80106038 159.328125 582.81640625 C160.93065334 584.19260189 160.93065334 584.19260189 163 584 C163 584.66 163 585.32 163 586 C164.89999669 587.45022415 164.89999669 587.45022415 167.4375 588.9375 C168.93216797 589.85982422 168.93216797 589.85982422 170.45703125 590.80078125 C171.29741943 591.31825928 171.29741943 591.31825928 172.15478516 591.84619141 C174.92940868 593.58115711 177.66210878 595.37894919 180.40014648 597.17089844 C190.97362123 605.1969232 190.97362123 605.1969232 203 609 C203 609.66 203 610.32 203 611 C215.32584952 616.93062577 215.32584952 616.93062577 227.94140625 622.203125 C229.83643892 622.93668603 231.70156505 623.74630046 233.5625 624.5625 C241.67556922 627.95523804 249.89106936 630.00759368 258.5 631.75 C259.57636719 631.98332031 260.65273438 632.21664062 261.76171875 632.45703125 C275.74751795 635.30188931 290.6811868 632.57956139 302.703125 624.65234375 C303.46109375 624.10707031 304.2190625 623.56179688 305 623 C305.86109375 622.38253906 306.7221875 621.76507812 307.609375 621.12890625 C310.9031856 618.6823046 310.9031856 618.6823046 314 616 C314 615.34 314 614.68 314 614 C314.99 613.67 315.98 613.34 317 613 C317 612.34 317 611.68 317 611 C317.66 611 318.32 611 319 611 C319.33 609.68 319.66 608.36 320 607 C320.66 607 321.32 607 322 607 C323.72524026 604.49732428 323.72524026 604.49732428 325.4375 601.375 C326.03433594 600.33085938 326.63117188 599.28671875 327.24609375 598.2109375 C330.3627363 592.505191 332.76139217 587.10217407 334.5625 580.875 C334.77068359 580.19179688 334.97886719 579.50859375 335.19335938 578.8046875 C335.85506219 576.5478453 336.44242448 574.28480193 337 572 C337.29124756 570.81253174 337.29124756 570.81253174 337.58837891 569.60107422 C339.61333639 559.70709231 339.30079407 549.62716581 339.26074219 539.57568359 C339.25009439 536.40312264 339.260643 533.23113669 339.2734375 530.05859375 C339.28453544 515.09886751 338.77519252 500.53458573 335 486 C334.49370528 483.2781658 334.06212172 480.54617975 333.625 477.8125 C332.54544778 471.36558664 331.04103921 465.23925386 328.96484375 459.02734375 C328.22864771 456.7174169 327.5974056 454.45603192 327.0234375 452.10546875 C326.05674625 448.14911714 324.91246855 444.25853538 323.6875 440.375 C323.4702124 439.6847876 323.2529248 438.9945752 323.02905273 438.28344727 C319.60214023 427.5038007 315.65764946 416.94629514 311.40625 406.46875 C310.23085304 403.5694375 309.08027475 400.66223243 307.9375 397.75 C305.80433627 392.41709066 303.40358659 387.21518942 301 382 C300.27074874 380.37503796 299.54158448 378.75003688 298.8125 377.125 C292.92071749 364.21125028 287.01572365 351.37969469 279.80859375 339.140625 C277.48429494 335.10447761 275.43513916 330.95836623 273.38671875 326.77734375 C271.38933567 322.77695116 269.21586843 318.88267212 267 315 C266.34 315 265.68 315 265 315 C264.67 313.35 264.34 311.7 264 310 C263.34 310 262.68 310 262 310 C261.9175 309.47535156 261.835 308.95070313 261.75 308.41015625 C260.71471931 305.08323863 258.87053087 302.34467123 257 299.4375 C253.12454324 293.37362972 253.12454324 293.37362972 252 290 C251.34 290 250.68 290 250 290 C249.5978125 288.91332031 249.5978125 288.91332031 249.1875 287.8046875 C247.08500572 282.83892797 243.95316492 278.49561723 241 274 C240.45811035 273.16782959 240.45811035 273.16782959 239.90527344 272.31884766 C234.38530141 263.84838152 228.6158549 255.58645356 222.64208984 247.42944336 C219.35851369 242.93567 216.25565973 238.37537353 213.28808594 233.66552734 C212.86301758 233.11590332 212.43794922 232.5662793 212 232 C211.34 232 210.68 232 210 232 C209.67 230.68 209.34 229.36 209 228 C208.34 228 207.68 228 207 228 C206.79375 227.34 206.5875 226.68 206.375 226 C204.50875748 221.92819814 202.02438473 218.31203002 199 215 C198.34 215 197.68 215 197 215 C196.7525 214.45859375 196.505 213.9171875 196.25 213.359375 C194.72011396 210.4717151 192.90849003 207.90223982 191 205.25 C190.29875 204.26515625 189.5975 203.2803125 188.875 202.265625 C188.25625 201.51796875 187.6375 200.7703125 187 200 C186.34 200 185.68 200 185 200 C184.7628125 199.45859375 184.525625 198.9171875 184.28125 198.359375 C182.65652243 195.36749863 180.6498123 192.88840601 178.5 190.25 C177.7059375 189.26515625 176.911875 188.2803125 176.09375 187.265625 C175.4028125 186.51796875 174.711875 185.7703125 174 185 C173.34 185 172.68 185 172 185 C171.73735352 184.41516846 171.47470703 183.83033691 171.20410156 183.2277832 C169.94021216 180.88938279 168.57021174 179.27064752 166.734375 177.35546875 C165.76951172 176.33936523 165.76951172 176.33936523 164.78515625 175.30273438 C164.11355469 174.60470703 163.44195313 173.90667969 162.75 173.1875 C161.43080999 171.80740436 160.11308582 170.42590597 158.796875 169.04296875 C157.8387793 168.0382251 157.8387793 168.0382251 156.86132812 167.01318359 C155.05120126 165.05537849 153.34154641 163.04106399 151.640625 160.98828125 C150.76921875 160.00214844 149.8978125 159.01601563 149 158 C148.34 158 147.68 158 147 158 C146.67 157.01 146.34 156.02 146 155 C145.34 155 144.68 155 144 155 C144 154.34 144 153.68 144 153 C143.34 153 142.68 153 142 153 C141.67 152.01 141.34 151.02 141 150 C140.34 150 139.68 150 139 150 C139 149.34 139 148.68 139 148 C137.51638306 146.49950064 137.51638306 146.49950064 135.5625 144.9375 C132.39242783 142.24825006 129.41418475 139.46486623 126.5 136.5 C120.53182255 130.43484479 120.53182255 130.43484479 114 125 C113.34 125 112.68 125 112 125 C112 124.34 112 123.68 112 123 C109.82735345 120.95543941 109.82735345 120.95543941 107.125 118.875 C106.22007812 118.15054688 105.31515625 117.42609375 104.3828125 116.6796875 C102.21344189 114.80794766 102.21344189 114.80794766 100 115 C100 114.34 100 113.68 100 113 C98.36893277 111.61799704 96.66535588 110.32139895 94.9375 109.0625 C94.40455322 108.6713501 93.87160645 108.2802002 93.32250977 107.87719727 C92.16364223 107.02767219 91.00265472 106.1810334 89.83984375 105.33691406 C87.9712487 103.979108 86.1098008 102.61200973 84.25 101.2421875 C81.71063795 99.37262252 79.16768919 97.50813743 76.62109375 95.6484375 C74.35702878 93.99500751 72.10022651 92.33325335 69.84765625 90.6640625 C65.67944363 87.58793302 61.59138962 84.59119443 57.015625 82.13671875 C52.93864355 79.83749084 49.02760872 77.23026259 45.0859375 74.70703125 C42.25711574 73.14222731 40.17726551 72.39568176 37 72 C37 71.34 37 70.68 37 70 C30.11504647 66.47791493 30.11504647 66.47791493 23.0625 63.3125 C20 62 20 62 17 60 C15.66016286 59.50132851 14.30358659 59.04647862 12.9375 58.625 C9.57803477 57.54866648 6.32269175 56.34727167 3.0625 55 C-20.5402518 45.42736692 -45.20630076 43.83831394 -69 53 Z M-149 194 C-150.2745084 196.35223997 -151.54465898 198.70666931 -152.8125 201.0625 C-153.16892578 201.71927734 -153.52535156 202.37605469 -153.89257812 203.05273438 C-156.16615883 207.2870177 -158.14094905 211.56306506 -160 216 C-164.90754558 226.95421488 -170.35343516 237.58704558 -176.02197266 248.16259766 C-179.30613781 254.33249954 -182.26148908 260.57045263 -185 267 C-185.70229727 268.37809276 -186.41084966 269.75301225 -187.125 271.125 C-188.62396774 274.06572297 -189.58642971 276.69143772 -190 280 C-190.66 280 -191.32 280 -192 280 C-192.1959375 280.54785156 -192.391875 281.09570312 -192.59375 281.66015625 C-195.2091894 288.59332535 -198.55617895 294.99482454 -202.09765625 301.484375 C-202.72542969 302.64453125 -203.35320312 303.8046875 -204 305 C-204.57621094 306.05703125 -205.15242188 307.1140625 -205.74609375 308.203125 C-207.27272833 311.0974799 -207.27272833 311.0974799 -207 315 C-207.66 315 -208.32 315 -209 315 C-209.25652344 315.57363281 -209.51304687 316.14726562 -209.77734375 316.73828125 C-215.74154055 329.97197044 -221.89070599 343.08234593 -228.76464844 355.87011719 C-232.11341058 362.1318637 -235.11715983 368.52160899 -238.07128906 374.9765625 C-239.81942675 378.78533356 -241.59207109 382.58240471 -243.375 386.375 C-243.7474585 387.1683374 -244.11991699 387.9616748 -244.50366211 388.77905273 C-247.53328837 395.16441311 -250.80247559 401.40418303 -254.25732422 407.56982422 C-256.17524708 411.06812239 -257 412.91954709 -257 417 C-257.66 417 -258.32 417 -259 417 C-259.38478516 417.86044922 -259.38478516 417.86044922 -259.77734375 418.73828125 C-262.60773843 425.01851725 -265.50562867 431.26655999 -268.4375 437.5 C-268.82470215 438.32435547 -269.2119043 439.14871094 -269.61083984 439.99804688 C-272.16327069 445.37948445 -274.90000198 450.58672411 -278.00390625 455.67578125 C-279.24223346 458.5652114 -279.17506512 460.88922752 -279 464 C-278.34 464 -277.68 464 -277 464 C-276.66162109 464.99966797 -276.66162109 464.99966797 -276.31640625 466.01953125 C-274.60665744 469.8905649 -272.32509015 473.20573841 -269.9375 476.6875 C-265.09118037 483.81763926 -265.09118037 483.81763926 -264 486 C-263.34 486 -262.68 486 -262 486 C-262 486.99 -262 487.98 -262 489 C-261.34 489 -260.68 489 -260 489 C-259.7628125 489.68191406 -259.525625 490.36382813 -259.28125 491.06640625 C-257.72555916 494.62836913 -255.67770124 497.73703384 -253.5 500.9375 C-252.84656616 501.90961426 -252.84656616 501.90961426 -252.17993164 502.90136719 C-248.60741744 508.18497817 -244.91464432 513.38065599 -241.13671875 518.51928711 C-239.3194235 521.0154867 -237.98409347 523.0477196 -237 526 C-236.34 526 -235.68 526 -235 526 C-234.65388672 527.01707031 -234.65388672 527.01707031 -234.30078125 528.0546875 C-232.68013592 531.7242568 -230.491278 534.86391844 -228.1875 538.125 C-227.19496571 539.54923756 -226.20279384 540.97372773 -225.2109375 542.3984375 C-224.68854492 543.14577148 -224.16615234 543.89310547 -223.62792969 544.66308594 C-220.83254892 548.67589108 -218.07271473 552.71295947 -215.3125 556.75 C-214.48504272 557.95970459 -214.48504272 557.95970459 -213.64086914 559.19384766 C-207.38323413 568.35195697 -201.20484292 577.5324912 -195.4453125 587.015625 C-194.96835937 587.67046875 -194.49140625 588.3253125 -194 589 C-193.34 589 -192.68 589 -192 589 C-191.896875 589.57621094 -191.79375 590.15242188 -191.6875 590.74609375 C-190.88705041 593.37029497 -189.71075441 594.92816938 -188 597.0625 C-186.0569079 599.49603602 -184.9987139 601.00385831 -184 604 C-183.34 604 -182.68 604 -182 604 C-181.66162109 604.99966797 -181.66162109 604.99966797 -181.31640625 606.01953125 C-179.60665744 609.8905649 -177.32509015 613.20573841 -174.9375 616.6875 C-170.09118037 623.81763926 -170.09118037 623.81763926 -169 626 C-168.34 626 -167.68 626 -167 626 C-167 626.99 -167 627.98 -167 629 C-166.34 629 -165.68 629 -165 629 C-164.77054687 629.68320312 -164.54109375 630.36640625 -164.3046875 631.0703125 C-162.69256212 634.69035452 -160.47711237 637.71370611 -158.125 640.875 C-154.73906892 645.44650932 -151.7631488 650.02406263 -149 655 C-146.68406122 659.07997233 -144.43778346 662.77350888 -141 666 C-136.36205744 667.22769068 -132.26066857 666.49411856 -127.64428711 665.48510742 C-125.07928137 665.01454456 -122.68212487 664.82905082 -120.078125 664.75390625 C-119.14379639 664.72232422 -118.20946777 664.69074219 -117.24682617 664.65820312 C-116.25787354 664.62662109 -115.2689209 664.59503906 -114.25 664.5625 C-106.49264664 664.27525823 -98.86364117 663.75141559 -91.16992188 662.73291016 C-85.11676639 661.95209412 -79.0696657 661.59806933 -72.97338867 661.34179688 C-70.12294621 661.21463477 -67.36537067 661.0750606 -64.56616211 660.5 C-62.03590115 660.0069951 -59.68724059 659.82875849 -57.11328125 659.75390625 C-56.18402832 659.72232422 -55.25477539 659.69074219 -54.29736328 659.65820312 C-53.3123584 659.62662109 -52.32735352 659.59503906 -51.3125 659.5625 C-43.30357757 659.26498612 -35.40808294 658.71190421 -27.45532227 657.73291016 C-21.53014643 657.01588922 -15.61624057 656.61409826 -9.65478516 656.34179688 C-6.77869138 656.20298516 -3.99429884 655.9989976 -1.15625 655.5 C3.3012926 654.79385464 7.74409046 654.71565326 12.25 654.5625 C20.00734179 654.25952397 27.65067706 653.68274169 35.35351562 652.73291016 C41.76917683 651.96481774 48.17869752 651.60096928 54.63354492 651.34179688 C57.79185583 651.20788039 60.81286247 651.03189561 63.93359375 650.5 C68.21621713 649.80168689 72.4807843 649.71702112 76.8125 649.5625 C84.17848641 649.2608301 91.4231399 648.68807765 98.73095703 647.73291016 C104.7883846 646.96401068 110.83923702 646.60113153 116.93823242 646.34179688 C119.9433159 646.20715375 122.8596294 646.02485123 125.82421875 645.5 C131.53819623 644.60038239 137.34534772 644.63679318 143.12109375 644.48242188 C144.07371094 644.44826172 145.02632812 644.41410156 146.0078125 644.37890625 C146.87035645 644.3538501 147.73290039 644.32879395 148.62158203 644.30297852 C151.13840661 643.98236886 152.8169772 643.2626422 155 642 C152.32110919 639.15597208 149.72168745 637.06520027 146.375 635.0625 C129.70625668 624.66957192 114.21261028 612.32306894 99.20703125 599.6796875 C97.01913018 597.82698749 97.01913018 597.82698749 94 597 C94 596.34 94 595.68 94 595 C93.34 595 92.68 595 92 595 C92 594.34 92 593.68 92 593 C90.1172428 591.3248763 90.1172428 591.3248763 87.75 589.625 C85.2543718 587.77366797 83.00074253 586.00076123 80.828125 583.7734375 C79.18524347 581.76790349 79.18524347 581.76790349 77 582 C77 581.34 77 580.68 77 580 C76.34 580 75.68 580 75 580 C75 579.34 75 578.68 75 578 C73.61088239 576.5918868 73.61088239 576.5918868 71.8125 575.1875 C68.67169729 572.63517013 65.84253506 569.88141472 63 567 C62.18660156 566.19820312 61.37320312 565.39640625 60.53515625 564.5703125 C55.78718253 559.87484401 51.28408306 555.12000171 47 550 C45.52873631 548.31980873 45.52873631 548.31980873 44 547 C43.34 547 42.68 547 42 547 C42 546.34 42 545.68 42 545 C41.34 545 40.68 545 40 545 C39.77054688 544.45214844 39.54109375 543.90429688 39.3046875 543.33984375 C37.62395795 540.32560122 35.48046682 538.08222044 33.125 535.5625 C30.56758185 532.81804679 28.0957168 530.12415933 25.8046875 527.15234375 C25.20914062 526.44207031 24.61359375 525.73179687 24 525 C23.34 525 22.68 525 22 525 C21.731875 524.42765625 21.46375 523.8553125 21.1875 523.265625 C19.95867364 520.92115366 18.57477824 518.87595062 17 516.75 C16.484375 516.04359375 15.96875 515.3371875 15.4375 514.609375 C14.963125 514.07828125 14.48875 513.5471875 14 513 C13.34 513 12.68 513 12 513 C11.75765625 512.44828125 11.5153125 511.8965625 11.265625 511.328125 C9.72388829 508.49209081 7.82612719 506.22157999 5.75 503.75 C-3.9964503 492.00709939 -3.9964503 492.00709939 -6 488 C-6.66 488 -7.32 488 -8 488 C-8.268125 487.43796875 -8.53625 486.8759375 -8.8125 486.296875 C-10.0803979 483.84449354 -11.48972342 481.56072317 -13 479.25 C-13.515625 478.45078125 -14.03125 477.6515625 -14.5625 476.828125 C-15.036875 476.22484375 -15.51125 475.6215625 -16 475 C-16.66 475 -17.32 475 -18 475 C-18.4640625 473.824375 -18.4640625 473.824375 -18.9375 472.625 C-19.92875038 470.07669872 -19.92875038 470.07669872 -21 468 C-21.66 468 -22.32 468 -23 468 C-23 467.01 -23 466.02 -23 465 C-23.66 465 -24.32 465 -25 465 C-26.20628008 462.66785852 -27.1654738 460.50357861 -28 458 C-28.66 458 -29.32 458 -30 458 C-30.2475 457.484375 -30.495 456.96875 -30.75 456.4375 C-32.39581616 453.22815849 -34.1976096 450.12414336 -36 447 C-36.66 447 -37.32 447 -38 447 C-38.1131958 446.4227417 -38.2263916 445.8454834 -38.34301758 445.25073242 C-39.06451885 442.77896721 -40.06687874 441.11435788 -41.51171875 438.98828125 C-42.02283203 438.22966797 -42.53394531 437.47105469 -43.06054688 436.68945312 C-43.86588867 435.51286133 -43.86588867 435.51286133 -44.6875 434.3125 C-45.73307292 432.76692708 -46.77864583 431.22135417 -47.82421875 429.67578125 C-48.34669189 428.9065332 -48.86916504 428.13728516 -49.4074707 427.34472656 C-57.26320724 415.77850033 -57.26320724 415.77850033 -59.9375 410.625 C-61.97669391 406.80217696 -64.14344576 403.13582654 -66.5 399.5 C-69.95921366 394.14086812 -73.01438443 388.63379057 -76 383 C-76.95367432 381.21609145 -77.90735983 379.43218886 -78.86132812 377.6484375 C-79.88813795 375.72539482 -80.91102064 373.80029833 -81.93359375 371.875 C-83.26686328 369.36767602 -84.61297259 366.86809211 -85.97265625 364.375 C-90.59090643 355.87489228 -94.7962261 347.2227389 -98.89453125 338.4609375 C-100.63366008 334.7509004 -102.4499813 331.08747367 -104.3125 327.4375 C-106.85549096 322.39343551 -109.00117742 317.28035413 -111 312 C-111.81146567 309.87460481 -112.62402769 307.74962798 -113.4375 305.625 C-113.85902344 304.52285156 -114.28054688 303.42070312 -114.71484375 302.28515625 C-115.92676607 299.18720285 -117.19951658 296.12413966 -118.5 293.0625 C-120.83829023 287.51089898 -122.8770093 281.87709855 -124.875 276.1953125 C-126.43512401 271.76412694 -128.08405647 267.37040661 -129.77734375 262.98828125 C-130.03644531 262.31152344 -130.29554688 261.63476562 -130.5625 260.9375 C-130.79066406 260.34839844 -131.01882813 259.75929688 -131.25390625 259.15234375 C-132.29951342 256.13595867 -133.13923343 253.07416631 -134 250 C-134.1966626 249.30543701 -134.3933252 248.61087402 -134.59594727 247.89526367 C-135.2345257 245.63958736 -135.86761578 243.38242004 -136.5 241.125 C-136.71269531 240.37347656 -136.92539062 239.62195313 -137.14453125 238.84765625 C-138.45100895 234.17479428 -139.5813925 229.50001396 -140.55273438 224.74560547 C-140.84613556 222.98404061 -140.84613556 222.98404061 -142 222 C-142.31123983 220.69649062 -142.57137834 219.38078195 -142.8125 218.0625 C-143.81705104 212.80969496 -144.95808616 207.59356987 -146.125 202.375 C-146.30780518 201.55652588 -146.49061035 200.73805176 -146.67895508 199.89477539 C-147.11844167 197.92965734 -147.559097 195.96480074 -148 194 C-148.33 194 -148.66 194 -149 194 Z M-325.0625 504.375 C-330.68518119 508.8950604 -330.68518119 508.8950604 -334 510 C-334 510.66 -334 511.32 -334 512 C-334.67675781 512.22945312 -335.35351562 512.45890625 -336.05078125 512.6953125 C-339.77255212 514.34176478 -342.87553072 516.52946615 -346.1875 518.875 C-347.59944967 519.86053755 -349.01224485 520.84486462 -350.42578125 521.828125 C-351.16521973 522.34310547 -351.9046582 522.85808594 -352.66650391 523.38867188 C-356.70641787 526.17831742 -360.7893869 528.90290619 -364.875 531.625 C-366.04325317 532.40593018 -366.04325317 532.40593018 -367.23510742 533.20263672 C-367.95931885 533.68490723 -368.68353027 534.16717773 -369.4296875 534.6640625 C-370.07147949 535.09154785 -370.71327148 535.5190332 -371.37451172 535.95947266 C-373 537 -373 537 -375 538 C-375 538.66 -375 539.32 -375 540 C-375.99966797 540.33837891 -375.99966797 540.33837891 -377.01953125 540.68359375 C-380.8905649 542.39334256 -384.20573841 544.67490985 -387.6875 547.0625 C-394.81763926 551.90881963 -394.81763926 551.90881963 -397 553 C-397 553.66 -397 554.32 -397 555 C-397.99 555 -398.98 555 -400 555 C-400 555.66 -400 556.32 -400 557 C-400.680625 557.2475 -401.36125 557.495 -402.0625 557.75 C-405.56865083 559.24197908 -408.71620368 561.06835511 -412 563 C-412 563.66 -412 564.32 -412 565 C-412.57878906 565.27199219 -413.15757812 565.54398438 -413.75390625 565.82421875 C-419.57667538 568.87231181 -424.500632 573.25742292 -429 578 C-430.1446875 579.0828125 -430.1446875 579.0828125 -431.3125 580.1875 C-450.79056414 600.57152061 -460.24106295 626.06304767 -460.125 653.9375 C-460.12886719 654.86240234 -460.13273437 655.78730469 -460.13671875 656.74023438 C-460.12237624 666.97361322 -459.00332719 676.2123712 -456 686 C-455.71125 686.98226562 -455.4225 687.96453125 -455.125 688.9765625 C-452.88836814 696.18970025 -449.87810272 702.53028055 -446 709 C-445.46375 709.89460937 -444.9275 710.78921875 -444.375 711.7109375 C-438.42128041 721.3306048 -431.72198187 730.71299507 -424 739 C-423.34 739 -422.68 739 -422 739 C-422 739.66 -422 740.32 -422 741 C-418.84201259 743.87840704 -415.39674583 746.41035267 -412 749 C-411.30132812 749.54011719 -410.60265625 750.08023438 -409.8828125 750.63671875 C-406.33632659 753.37492753 -406.33632659 753.37492753 -402 754 C-402 754.66 -402 755.32 -402 756 C-394.81013958 761.27256431 -385.40420856 763.58731002 -376.98046875 766.0703125 C-374 767 -374 767 -371.62841797 768.01416016 C-354.96661904 774.26349548 -330.55352687 771.88265831 -314 766 C-312.78376953 765.56880859 -312.78376953 765.56880859 -311.54296875 765.12890625 C-296.06032043 759.25281453 -282.67620476 750.17263933 -269.01708984 740.99951172 C-268.26766113 740.49693848 -267.51823242 739.99436523 -266.74609375 739.4765625 C-266.07247803 739.02361816 -265.3988623 738.57067383 -264.70483398 738.10400391 C-263 737 -263 737 -261 736 C-261 735.34 -261 734.68 -261 734 C-260.01 734 -259.02 734 -258 734 C-258 733.34 -258 732.68 -258 732 C-256.98292969 731.66162109 -256.98292969 731.66162109 -255.9453125 731.31640625 C-252.20194313 729.6433088 -249.15289955 727.37694735 -245.875 724.9375 C-239.38742566 720.12914189 -239.38742566 720.12914189 -236 719 C-236 718.34 -236 717.68 -236 717 C-234.98292969 716.65388672 -234.98292969 716.65388672 -233.9453125 716.30078125 C-230.27575051 714.68013915 -227.13609143 712.49126268 -223.875 710.1875 C-222.45986564 709.20149242 -221.04449015 708.21583084 -219.62890625 707.23046875 C-218.8827002 706.70888184 -218.13649414 706.18729492 -217.36767578 705.64990234 C-213.19795615 702.74425528 -209.00517882 699.87237057 -204.8125 697 C-203.61052979 696.17278442 -203.61052979 696.17278442 -202.38427734 695.32885742 C-199.30020404 693.2138307 -196.27015614 691.15255876 -193.01171875 689.3125 C-190.68518884 688.09180484 -190.68518884 688.09180484 -190 685 C-191.27030856 682.64768744 -192.56954782 680.51617415 -194.0625 678.3125 C-194.475 677.68690186 -194.8875 677.06130371 -195.3125 676.41674805 C-198.02298409 672.34099481 -200.85155252 668.37763837 -203.90625 664.55078125 C-205 663 -205 663 -206 660 C-206.66 660 -207.32 660 -208 660 C-208.33837891 659.00033203 -208.33837891 659.00033203 -208.68359375 657.98046875 C-210.39334256 654.1094351 -212.67490985 650.79426159 -215.0625 647.3125 C-219.90881963 640.18236074 -219.90881963 640.18236074 -221 638 C-221.66 638 -222.32 638 -223 638 C-223 637.01 -223 636.02 -223 635 C-223.66 635 -224.32 635 -225 635 C-225.2371875 634.31808594 -225.474375 633.63617187 -225.71875 632.93359375 C-227.27444084 629.37163087 -229.32229876 626.26296616 -231.5 623.0625 C-231.93562256 622.41442383 -232.37124512 621.76634766 -232.82006836 621.09863281 C-236.39258256 615.81502183 -240.08535568 610.61934401 -243.86328125 605.48071289 C-245.6805765 602.9845133 -247.01590653 600.9522804 -248 598 C-248.66 598 -249.32 598 -250 598 C-250.21785156 597.34 -250.43570313 596.68 -250.66015625 596 C-252.45499742 591.98123026 -254.90168287 588.58386671 -257.4375 585 C-258.41673936 583.60513079 -259.39463802 582.20931926 -260.37109375 580.8125 C-261.05921143 579.83216797 -261.05921143 579.83216797 -261.76123047 578.83203125 C-262.81939566 577.26709794 -263.78195237 575.6382326 -264.72265625 574 C-265.14417969 573.34 -265.56570313 572.68 -266 572 C-266.66 572 -267.32 572 -268 572 C-268.08636719 571.45601562 -268.17273438 570.91203125 -268.26171875 570.3515625 C-269.24417399 567.22226062 -270.90029609 565.04174924 -272.8125 562.375 C-273.62266668 561.23158162 -274.43116286 560.08697839 -275.23828125 558.94140625 C-275.67736816 558.3189502 -276.11645508 557.69649414 -276.56884766 557.05517578 C-279.26837801 553.17857283 -281.88163512 549.24417475 -284.5 545.3125 C-285.02827393 544.52214355 -285.55654785 543.73178711 -286.10083008 542.91748047 C-286.59349365 542.17771973 -287.08615723 541.43795898 -287.59375 540.67578125 C-288.03396484 540.01489502 -288.47417969 539.35400879 -288.92773438 538.6730957 C-290 537 -290 537 -291 535 C-291.66 535 -292.32 535 -293 535 C-293 534.01 -293 533.02 -293 532 C-293.66 532 -294.32 532 -295 532 C-295.23460937 531.32195313 -295.46921875 530.64390625 -295.7109375 529.9453125 C-297.30031589 526.31382369 -299.40309456 523.13897157 -301.625 519.875 C-302.0679541 519.22063965 -302.5109082 518.5662793 -302.96728516 517.89208984 C-304.30551433 515.9238798 -305.65256466 513.96191405 -307 512 C-307.5868457 511.1327832 -307.5868457 511.1327832 -308.18554688 510.24804688 C-309.23636631 508.69859607 -310.30516345 507.16138181 -311.375 505.625 C-312.28378906 504.31402344 -312.28378906 504.31402344 -313.2109375 502.9765625 C-314.85319574 500.95813721 -314.85319574 500.95813721 -316.84765625 499.9375 C-320.32011515 500.03833365 -322.49048628 502.25427212 -325.0625 504.375 Z M-136.16796875 717.1484375 C-137.16441406 717.22320313 -138.16085937 717.29796875 -139.1875 717.375 C-140.69376953 717.47941406 -140.69376953 717.47941406 -142.23046875 717.5859375 C-144.90691236 717.98608281 -146.68378936 718.64012454 -149 720 C-149 720.66 -149 721.32 -149 722 C-149.68320312 722.22945312 -150.36640625 722.45890625 -151.0703125 722.6953125 C-154.69035452 724.30743788 -157.71370611 726.52288763 -160.875 728.875 C-164.89195836 731.85019773 -168.89154728 734.56915108 -173.26367188 736.99511719 C-176.23488927 738.71468001 -179.0130073 740.70466211 -181.8125 742.6875 C-187.76859504 746.88429752 -187.76859504 746.88429752 -190 748 C-190 748.66 -190 749.32 -190 750 C-190.87507202 750.17329834 -190.87507202 750.17329834 -191.76782227 750.35009766 C-194.15791138 751.04597617 -195.6886524 751.96622553 -197.71484375 753.3984375 C-198.74448242 754.11773438 -198.74448242 754.11773438 -199.79492188 754.8515625 C-200.50197266 755.35429688 -201.20902344 755.85703125 -201.9375 756.375 C-210.56579525 762.44881371 -210.56579525 762.44881371 -215 765 C-214.55648791 770.29838549 -212.79437386 773.07474529 -209.5 777.1875 C-205.08719346 782.73841962 -205.08719346 782.73841962 -204 786 C-203.34 786 -202.68 786 -202 786 C-202 786.99 -202 787.98 -202 789 C-201.34 789 -200.68 789 -200 789 C-199.77054687 789.68320312 -199.54109375 790.36640625 -199.3046875 791.0703125 C-197.69256212 794.69035452 -195.47711237 797.71370611 -193.125 800.875 C-190.15654684 804.88285218 -187.47997211 808.85186512 -185.05419922 813.22314453 C-183.11626276 816.48954137 -180.78931838 819.4746065 -178.5 822.5 C-175.78801 826.08396498 -173.14533738 829.61465405 -170.94921875 833.54296875 C-168.92542303 837.13226576 -166.69070351 840.45480576 -164.3125 843.8125 C-160.11570248 849.76859504 -160.11570248 849.76859504 -159 852 C-158.34 852 -157.68 852 -157 852 C-156.87939209 852.59063232 -156.75878418 853.18126465 -156.63452148 853.78979492 C-155.59345851 857.41609085 -153.22563954 860.27065356 -151.0625 863.3125 C-150.06547134 864.73762764 -149.06940121 866.16342628 -148.07421875 867.58984375 C-147.31117432 868.68014893 -147.31117432 868.68014893 -146.53271484 869.79248047 C-144.10351778 873.2911743 -141.73547934 876.82971737 -139.375 880.375 C-138.94968994 881.01091064 -138.52437988 881.64682129 -138.08618164 882.30200195 C-135.12588991 886.74822018 -135.12588991 886.74822018 -134 889 C-133.34 889 -132.68 889 -132 889 C-131.66162109 889.99966797 -131.66162109 889.99966797 -131.31640625 891.01953125 C-129.60665744 894.8905649 -127.32509015 898.20573841 -124.9375 901.6875 C-120.09118037 908.81763926 -120.09118037 908.81763926 -119 911 C-118.34 911 -117.68 911 -117 911 C-117 911.99 -117 912.98 -117 914 C-116.34 914 -115.68 914 -115 914 C-114.773125 914.680625 -114.54625 915.36125 -114.3125 916.0625 C-112.91437453 919.19163795 -111.18909099 921.63923377 -109.12109375 924.3515625 C-108 926 -108 926 -107 929 C-106.34 929 -105.68 929 -105 929 C-104.66162109 930.01707031 -104.66162109 930.01707031 -104.31640625 931.0546875 C-102.6433088 934.79805687 -100.37694735 937.84710045 -97.9375 941.125 C-93.12914189 947.61257434 -93.12914189 947.61257434 -92 951 C-91.34 951 -90.68 951 -90 951 C-89.77054687 951.68320313 -89.54109375 952.36640625 -89.3046875 953.0703125 C-87.69256212 956.69035452 -85.47711237 959.71370611 -83.125 962.875 C-80.14980227 966.89195836 -77.43084892 970.89154728 -75.00488281 975.26367188 C-73.28531999 978.23488927 -71.29533789 981.0130073 -69.3125 983.8125 C-65.11570248 989.76859504 -65.11570248 989.76859504 -64 992 C-63.34 992 -62.68 992 -62 992 C-61.66162109 992.99966797 -61.66162109 992.99966797 -61.31640625 994.01953125 C-59.60665744 997.8905649 -57.32509015 1001.20573841 -54.9375 1004.6875 C-50.09118037 1011.81763926 -50.09118037 1011.81763926 -49 1014 C-48.34 1014 -47.68 1014 -47 1014 C-46.896875 1014.57621094 -46.79375 1015.15242188 -46.6875 1015.74609375 C-45.88705041 1018.37029497 -44.71075441 1019.92816938 -43 1022.0625 C-41.0569079 1024.49603602 -39.9987139 1026.00385831 -39 1029 C-38.34 1029 -37.68 1029 -37 1029 C-36.79375 1029.680625 -36.5875 1030.36125 -36.375 1031.0625 C-32.13422228 1040.12234331 -23.49143825 1046.13523382 -14.50390625 1050.1015625 C-12.35037596 1050.84055556 -10.20728719 1051.44504878 -8 1052 C-6.741875 1052.391875 -5.48375 1052.78375 -4.1875 1053.1875 C7.27150607 1055.86504993 19.83315134 1053.84593798 30 1048 C31.33333333 1047.33333333 32.66666667 1046.66666667 34 1046 C34 1045.34 34 1044.68 34 1044 C34.99 1044 35.98 1044 37 1044 C37 1043.34 37 1042.68 37 1042 C37.99 1041.67 38.98 1041.34 40 1041 C40 1040.34 40 1039.68 40 1039 C40.9590625 1038.5978125 40.9590625 1038.5978125 41.9375 1038.1875 C44.33131686 1037.11332248 44.33131686 1037.11332248 45 1034 C45.66 1034 46.32 1034 47 1034 C47 1033.01 47 1032.02 47 1031 C47.66 1031 48.32 1031 49 1031 C51.87686169 1027.24757171 52.99687356 1023.07894228 54.25390625 1018.59765625 C54.78803796 1016.73798303 55.40049359 1014.90011504 56.0625 1013.08203125 C59.59427776 1001.47131186 56.3228706 988.61375152 51.01025391 978.02783203 C48.91488199 974.18777399 46.68460913 970.46095305 44 967 C43.34 967 42.68 967 42 967 C41.87044922 966.18402344 41.87044922 966.18402344 41.73828125 965.3515625 C40.75582601 962.22226062 39.09970391 960.04174924 37.1875 957.375 C36.37733332 956.23158162 35.56883714 955.08697839 34.76171875 953.94140625 C34.32263184 953.3189502 33.88354492 952.69649414 33.43115234 952.05517578 C30.73162199 948.17857283 28.11836488 944.24417475 25.5 940.3125 C24.97172607 939.52214355 24.44345215 938.73178711 23.89916992 937.91748047 C23.40650635 937.17771973 22.91384277 936.43795898 22.40625 935.67578125 C21.96603516 935.01489502 21.52582031 934.35400879 21.07226562 933.6730957 C20 932 20 932 19 930 C18.34 930 17.68 930 17 930 C16.7628125 929.31808594 16.525625 928.63617187 16.28125 927.93359375 C14.72555916 924.37163087 12.67770124 921.26296616 10.5 918.0625 C10.06437744 917.41442383 9.62875488 916.76634766 9.17993164 916.09863281 C5.60741744 910.81502183 1.91464432 905.61934401 -1.86328125 900.48071289 C-3.6805765 897.9845133 -5.01590653 895.9522804 -6 893 C-6.66 893 -7.32 893 -8 893 C-8 892.01 -8 891.02 -8 890 C-8.66 890 -9.32 890 -10 890 C-10.2371875 889.31808594 -10.474375 888.63617187 -10.71875 887.93359375 C-12.27444084 884.37163087 -14.32229876 881.26296616 -16.5 878.0625 C-16.93562256 877.41442383 -17.37124512 876.76634766 -17.82006836 876.09863281 C-21.39258256 870.81502183 -25.08535568 865.61934401 -28.86328125 860.48071289 C-30.6805765 857.9845133 -32.01590653 855.9522804 -33 853 C-33.66 853 -34.32 853 -35 853 C-35.2475 852.484375 -35.495 851.96875 -35.75 851.4375 C-38.6958708 845.69305194 -42.01910026 840.45395136 -45.75 835.1953125 C-55.70901517 821.05212776 -65.57401934 806.77114955 -74.5546875 791.984375 C-75.27011719 791.00210938 -75.27011719 791.00210938 -76 790 C-76.66 790 -77.32 790 -78 790 C-78.103125 789.42378906 -78.20625 788.84757813 -78.3125 788.25390625 C-79.11294959 785.62970503 -80.28924559 784.07183062 -82 781.9375 C-83.9430921 779.50396398 -85.0012861 777.99614169 -86 775 C-86.66 775 -87.32 775 -88 775 C-88.22558594 774.33355469 -88.45117188 773.66710937 -88.68359375 772.98046875 C-90.39334256 769.1094351 -92.67490985 765.79426159 -95.0625 762.3125 C-99.90881963 755.18236074 -99.90881963 755.18236074 -101 753 C-101.66 753 -102.32 753 -103 753 C-103 752.01 -103 751.02 -103 750 C-103.66 750 -104.32 750 -105 750 C-105.226875 749.319375 -105.45375 748.63875 -105.6875 747.9375 C-107.08562547 744.80836205 -108.81090901 742.36076623 -110.87890625 739.6484375 C-112 738 -112 738 -113 735 C-113.66 735 -114.32 735 -115 735 C-115.24363281 734.31550781 -115.48726563 733.63101563 -115.73828125 732.92578125 C-117.23726459 729.44981058 -119.1119883 726.33764212 -121.1875 723.1875 C-121.54908203 722.59001953 -121.91066406 721.99253906 -122.28320312 721.37695312 C-123.52249287 719.39814791 -123.52249287 719.39814791 -126 717 C-129.51601099 716.57759593 -132.64697094 716.98345856 -136.16796875 717.1484375 Z "
    fill="#000000" transform="translate(550,173)" />
  <path stroke="currentColor" stroke-width="40"
    d="M0 0 C0.69745331 -0.00340393 1.39490662 -0.00680786 2.11349487 -0.01031494 C9.83798929 -0.03187241 17.00269719 0.32859833 24.5 2.3125 C25.97653147 2.48295883 27.45591866 2.63118028 28.9375 2.75 C49.60569037 4.85972877 75.65637665 18.74828603 90.5 33.3125 C90.5 33.9725 90.5 34.6325 90.5 35.3125 C91.49 35.6425 92.48 35.9725 93.5 36.3125 C93.5 36.9725 93.5 37.6325 93.5 38.3125 C94.139375 38.580625 94.77875 38.84875 95.4375 39.125 C97.5 40.3125 97.5 40.3125 98.5 43.3125 C99.49 43.6425 100.48 43.9725 101.5 44.3125 C101.5 44.9725 101.5 45.6325 101.5 46.3125 C102.16 46.3125 102.82 46.3125 103.5 46.3125 C104.7890625 47.7734375 104.7890625 47.7734375 106.125 49.6875 C106.57101562 50.31398438 107.01703125 50.94046875 107.4765625 51.5859375 C108.5 53.3125 108.5 53.3125 108.5 55.3125 C109.16 55.3125 109.82 55.3125 110.5 55.3125 C111.67333984 56.82202148 111.67333984 56.82202148 112.9609375 58.93359375 C113.66863281 60.09084961 113.66863281 60.09084961 114.390625 61.27148438 C114.88046875 62.08939453 115.3703125 62.90730469 115.875 63.75 C116.59816406 64.9246582 116.59816406 64.9246582 117.3359375 66.12304688 C120.50970407 71.36234902 123.12894568 76.67000759 125.5 82.3125 C126.02464844 83.47652344 126.54929687 84.64054687 127.08984375 85.83984375 C134.5067688 104.10479215 140.87378533 132.191144 134.5 151.3125 C134.3481763 152.97693755 134.22684035 154.64425802 134.125 156.3125 C133.44826613 164.31699286 131.25425801 171.81096599 128.2890625 179.25390625 C127.73403391 180.70192639 127.23331126 182.17135246 126.7734375 183.65234375 C122.29127582 197.58055645 113.55089851 209.97246374 104.5 221.3125 C103.44425781 222.71242188 103.44425781 222.71242188 102.3671875 224.140625 C101.75101563 224.85734375 101.13484375 225.5740625 100.5 226.3125 C99.84 226.3125 99.18 226.3125 98.5 226.3125 C98.27054688 226.87839844 98.04109375 227.44429687 97.8046875 228.02734375 C96.15559503 230.91572427 94.12266567 232.68491037 91.625 234.875 C90.76132812 235.63941406 89.89765625 236.40382813 89.0078125 237.19140625 C82.95303867 242.3125 82.95303867 242.3125 80.5 242.3125 C80.5 242.9725 80.5 243.6325 80.5 244.3125 C75.93070088 248.12222732 71.45991991 249.99321858 65.5 250.3125 C64.8503125 250.35117187 64.200625 250.38984375 63.53125 250.4296875 C56.18173893 250.68409365 50.34553277 248.88726477 44.5 244.3125 C39.29632017 238.83569886 35.42559709 232.99900784 35.52734375 225.22265625 C36.77797121 213.79148248 41.9701274 207.39742151 50.5 200.3125 C55.49557962 196.12572851 59.92665727 191.8756433 64.0546875 186.81640625 C64.53164063 186.32011719 65.00859375 185.82382812 65.5 185.3125 C66.16 185.3125 66.82 185.3125 67.5 185.3125 C67.76039063 184.59964844 68.02078125 183.88679687 68.2890625 183.15234375 C69.56396514 180.16249144 71.13326546 177.61690088 72.875 174.875 C76.33672772 169.06939414 78.11591715 163.67762634 79.7734375 157.1484375 C80.5 154.3125 80.5 154.3125 81.5 152.3125 C83.1947552 137.50490382 83.81859146 121.41449147 78.5 107.3125 C78.13777344 106.33410156 77.77554688 105.35570312 77.40234375 104.34765625 C75.07179719 98.4051372 72.39279884 93.22048027 68.63671875 88.0546875 C67.5 86.3125 67.5 86.3125 67.5 84.3125 C66.84 84.3125 66.18 84.3125 65.5 84.3125 C61.5 79.84191176 61.5 79.84191176 61.5 77.3125 C60.84 77.3125 60.18 77.3125 59.5 77.3125 C58.36129667 76.17379667 57.22652083 75.03095398 56.109375 73.87109375 C39.67357817 57.95390216 19.7766172 52.58965853 -2.5 52.3125 C-6.8758286 52.42223865 -11.1605177 52.74516852 -15.5 53.3125 C-16.27214844 53.41304688 -17.04429687 53.51359375 -17.83984375 53.6171875 C-26.11387218 55.08347102 -33.92746626 59.06179817 -41.0234375 63.44921875 C-48.48041546 68.0548178 -54.51258163 70.6623097 -63.5 70.3125 C-65.3253125 70.2815625 -65.3253125 70.2815625 -67.1875 70.25 C-72.96588743 68.61460733 -78.59905079 64.93061536 -82.5 60.3125 C-86.33268278 53.02500457 -89.29266534 46.270476 -86.8359375 38.10546875 C-81.12445259 23.52876596 -67.15288185 16.37135012 -53.5 10.3125 C-35.72454049 2.98943644 -19.09581394 0.02220727 0 0 Z "
    fill="#000000" transform="translate(624.5,408.6875)" />
  <path stroke="currentColor" stroke-width="40"
    d="M0 0 C0 0.66 0 1.32 0 2 C0.66 2 1.32 2 2 2 C7.43702387 8.67348102 8.64364347 15.51710913 8 24 C5.76614934 34.61079062 1.41801644 38.89444369 -7.41015625 44.66015625 C-8.00199707 45.04316895 -8.59383789 45.42618164 -9.20361328 45.82080078 C-11.57185469 47.37538165 -13.88471019 49.00303331 -16.20068359 50.6340332 C-23.81818771 55.99560981 -23.81818771 55.99560981 -27.8125 58.1875 C-30.4206441 59.67056233 -32.63298301 61.18303267 -35 63 C-39.50889615 66.45157748 -44.25975527 70.08156084 -50 71 C-50 71.66 -50 72.32 -50 73 C-52.01953125 74.48046875 -52.01953125 74.48046875 -54.8125 76.1875 C-56.32650391 77.12529297 -56.32650391 77.12529297 -57.87109375 78.08203125 C-58.90363281 78.71496094 -59.93617188 79.34789062 -61 80 C-65.89192979 83.05306952 -70.76877548 86.10920406 -75.4765625 89.44140625 C-76.06260254 89.85535645 -76.64864258 90.26930664 -77.25244141 90.69580078 C-78.3973703 91.50931131 -79.53787377 92.32909471 -80.67333984 93.15576172 C-84.67161821 96 -84.67161821 96 -88 96 C-88 96.66 -88 97.32 -88 98 C-90.1171875 99.5078125 -90.1171875 99.5078125 -92.875 101.125 C-93.77992187 101.66382813 -94.68484375 102.20265625 -95.6171875 102.7578125 C-98 104 -98 104 -100 104 C-100 104.66 -100 105.32 -100 106 C-100.99 106 -101.98 106 -103 106 C-103 106.66 -103 107.32 -103 108 C-104.40527344 109.12915039 -104.40527344 109.12915039 -106.359375 110.34765625 C-107.41511719 111.00797852 -107.41511719 111.00797852 -108.4921875 111.68164062 C-109.23726562 112.13732422 -109.98234375 112.59300781 -110.75 113.0625 C-111.47960938 113.52205078 -112.20921875 113.98160156 -112.9609375 114.45507812 C-116.30639722 116.52622182 -119.11101904 118.19961356 -123 119 C-123 119.66 -123 120.32 -123 121 C-123.99 121 -124.98 121 -126 121 C-126 121.66 -126 122.32 -126 123 C-128.1171875 124.5078125 -128.1171875 124.5078125 -130.875 126.125 C-131.77992187 126.66382813 -132.68484375 127.20265625 -133.6171875 127.7578125 C-136 129 -136 129 -138 129 C-138 129.66 -138 130.32 -138 131 C-139.00417969 131.56203125 -140.00835938 132.1240625 -141.04296875 132.703125 C-145.55113415 135.27792206 -149.86579959 138.12565571 -154.18945312 140.99609375 C-158.78513029 144 -158.78513029 144 -161 144 C-161 144.66 -161 145.32 -161 146 C-162.4540625 146.804375 -162.4540625 146.804375 -163.9375 147.625 C-166.91355248 149.30842362 -169.69940445 151.16506349 -172.5 153.125 C-178.95196204 157.44083948 -185.31796199 158.86091805 -193 158 C-200.92470989 156.01882253 -207.03960306 151.87952137 -211.73828125 145.1953125 C-215.71172695 138.28176302 -215.48859771 130.65564536 -214 123 C-213.1831389 120.76438014 -212.26296402 119.03172473 -211 117 C-210.34 117 -209.68 117 -209 117 C-208.5978125 116.0409375 -208.5978125 116.0409375 -208.1875 115.0625 C-207 113 -207 113 -204 112 C-204 111.34 -204 110.68 -204 110 C-201.734375 108.30859375 -201.734375 108.30859375 -198.75 106.4375 C-197.28820312 105.50744141 -197.28820312 105.50744141 -195.796875 104.55859375 C-193.43180391 103.24062816 -191.63809243 102.45852559 -189 102 C-189 101.34 -189 100.68 -189 100 C-188.0925 99.505 -187.185 99.01 -186.25 98.5 C-181.8559124 95.98784235 -177.69365702 93.15660878 -173.49609375 90.33203125 C-169.59132216 87.71420026 -165.63954335 85.17066348 -161.6875 82.625 C-151.85432442 76.28048325 -142.04804727 69.89360063 -132.5 63.125 C-129.40427524 60.93769283 -126.28719669 58.97553762 -122.9609375 57.1484375 C-119.23782207 54.96796751 -115.70197494 52.49201812 -112.125 50.08203125 C-109.19501767 48.12993052 -106.23353447 46.24385284 -103.25 44.375 C-99.97194475 42.30737607 -96.82459186 40.17165798 -93.75 37.8125 C-89.32179171 34.41875021 -84.63395803 30.90143329 -79 30 C-79 29.34 -79 28.68 -79 28 C-77.13671875 26.4921875 -77.13671875 26.4921875 -74.6875 24.875 C-73.88699219 24.33617187 -73.08648438 23.79734375 -72.26171875 23.2421875 C-70 22 -70 22 -67 22 C-67 21.34 -67 20.68 -67 20 C-66.01 20 -65.02 20 -64 20 C-64 19.34 -64 18.68 -64 18 C-61.71703175 16.42988321 -59.43636243 14.98412582 -57.0625 13.5625 C-55.60075257 12.66929286 -54.13984403 11.77471172 -52.6796875 10.87890625 C-51.53258301 10.17725342 -51.53258301 10.17725342 -50.36230469 9.46142578 C-46.43392716 7.03115833 -42.56063446 4.51705488 -38.6875 2 C-37.96506104 1.53150635 -37.24262207 1.0630127 -36.49829102 0.58032227 C-33.65535481 -1.26540148 -30.82033481 -3.11977679 -28 -5 C-17.41444837 -7.46175619 -9.11082948 -5.57805887 0 0 Z "
    fill="#000000" transform="translate(1171,192)" />
  <path stroke="currentColor" stroke-width="40"
    d="M0 0 C1.50850564 0.26364159 3.02449406 0.48527387 4.54296875 0.68359375 C5.45240234 0.80669922 6.36183594 0.92980469 7.29882812 1.05664062 C9.20490607 1.30794908 11.1111534 1.55797653 13.01757812 1.80664062 C18.1826188 2.50815565 22.99196752 3.5124656 28 5 C29.76465674 5.2387332 31.53650599 5.43268395 33.3125 5.5625 C37.7981982 5.8990991 37.7981982 5.8990991 40 7 C42.32854865 7.36526253 44.66298962 7.69350684 47 8 C53.77777778 8.88888889 53.77777778 8.88888889 56 10 C57.89067134 10.323443 59.78794563 10.60864182 61.6875 10.875 C66.72847354 11.61664766 71.69946471 12.52332598 76.6875 13.5625 C81.69310443 14.59034485 86.58071982 15.33598423 91.66796875 15.7578125 C97.20649422 16.33300275 102.63063642 17.61773149 108 19.0625 C111.78661014 20.04336889 115.52861453 20.38211371 119.41796875 20.72265625 C124.87528658 21.30884319 130.19709136 22.44273733 135.4375 24.0625 C139.39702617 25.10448057 143.16031499 25.40528448 147.23046875 25.72265625 C151.92613305 26.19288497 156.43756768 27.30390618 160.984375 28.5390625 C164.68572474 29.53102423 168.03934302 30.07646794 171.875 30.25 C178.70679897 30.87011714 184.23952071 34.02849233 188.890625 39.03515625 C190.38565179 40.97651385 191.74100405 42.89883784 193 45 C193.37511719 45.598125 193.75023437 46.19625 194.13671875 46.8125 C195.34719418 49.87976807 195.30189369 52.58704329 195.3125 55.875 C195.32925781 57.06867187 195.34601563 58.26234375 195.36328125 59.4921875 C194.96605923 63.3277292 193.91955489 65.68440518 192 69 C191.4225 70.010625 190.845 71.02125 190.25 72.0625 C186.52197888 76.92963868 181.86543775 80.15986267 176 82 C173.22649104 82.19108268 170.58139665 82.28485966 167.8125 82.25 C167.05654541 82.24468262 166.30059082 82.23936523 165.52172852 82.23388672 C159.82358201 82.13746312 154.51339189 81.47144891 149 80 C143.18922898 78.45949867 137.44588259 77.3684997 131.5 76.5 C126.96847085 75.83809125 122.49604582 75.17899578 118.06640625 74 C112.36596637 72.50489585 106.52421602 71.8992767 100.68945312 71.14453125 C95.61625583 70.46025663 90.92700544 69.42039796 86 68 C82.69983837 67.40991656 79.3838661 66.95347984 76.0625 66.5 C70.62653789 65.75444981 65.35769952 64.88843343 60.05249023 63.48632812 C56.08382396 62.5459709 52.03706942 62.05662624 48 61.5 C42.58608352 60.75353576 37.33906384 59.88170059 32.0546875 58.48632812 C28.08507458 57.54675244 24.037821 57.05672987 20 56.5 C14.57772687 55.75238355 9.31647334 54.88398719 4.0234375 53.48632812 C0.22679855 52.57381548 -3.63899839 52.06396653 -7.5 51.5 C-12.15213534 50.82047461 -16.73247731 50.11919822 -21.28515625 48.9296875 C-24.2975587 48.17579498 -26.86310402 47.76163982 -29.9375 47.625 C-38.29954833 46.86831158 -45.35971392 43.21411171 -51 37 C-56.18244028 30.75483146 -56.74842203 24.58526935 -56.5078125 16.62109375 C-55.80705539 11.6241565 -54.02812715 7.990639 -51 4 C-50.34 4 -49.68 4 -49 4 C-48.67 3.01 -48.34 2.02 -48 1 C-36.80075207 -8.66319148 -12.78423043 -6.39211521 0 0 Z "
    fill="#000000" transform="translate(1053,466)" />
  <path stroke="currentColor" stroke-width="40"
    d="M0 0 C0.66 0.33 1.32 0.66 2 1 C2 1.66 2 2.32 2 3 C2.5775 3.20625 3.155 3.4125 3.75 3.625 C8.61777694 6.59975257 10.5263414 11.7102735 12 17 C12.23046875 20.2890625 12.23046875 20.2890625 12.1875 23.625 C12.18105469 24.73101563 12.17460938 25.83703125 12.16796875 26.9765625 C12 30 12 30 11.52075195 31.85888672 C10.91675517 34.34226776 10.70053624 36.73336546 10.5 39.28125 C10.4175 40.28800781 10.335 41.29476562 10.25 42.33203125 C10.1675 43.37746094 10.085 44.42289063 10 45.5 C9.83639669 47.57316069 9.66984654 49.64609146 9.5 51.71875 C9.4278125 52.63591797 9.355625 53.55308594 9.28125 54.49804688 C9.02727455 56.75737016 8.55348687 58.80161237 8 61 C7.8708211 62.39300128 7.77857861 63.78980179 7.71875 65.1875 C7.68136719 65.96867187 7.64398437 66.74984375 7.60546875 67.5546875 C7.57066406 68.36164063 7.53585937 69.16859375 7.5 70 C7.4308036 71.60433145 7.35800847 73.20851257 7.28125 74.8125 C7.25095703 75.52019531 7.22066406 76.22789063 7.18945312 76.95703125 C7 79 7 79 6.51367188 80.93164062 C5.90359801 83.38817381 5.69859821 85.75798884 5.5 88.28125 C5.4175 89.28800781 5.335 90.29476562 5.25 91.33203125 C5.1675 92.37746094 5.085 93.42289062 5 94.5 C4.83639669 96.57316069 4.66984654 98.64609146 4.5 100.71875 C4.39171875 102.09450195 4.39171875 102.09450195 4.28125 103.49804688 C4.02739527 105.75629628 3.5631246 107.80486477 3 110 C2.81988819 112.54443664 2.67650426 115.07774453 2.5625 117.625 C1.96092179 129.1775529 0.69045736 140.62903183 -1.0625 152.0625 C-1.97246181 158.14076054 -2.38989987 164.18242662 -2.65844727 170.31665039 C-2.90345296 175.61967638 -2.90345296 175.61967638 -3.48632812 177.91577148 C-4.06879427 180.27913339 -4.27907232 182.53799134 -4.46484375 184.96484375 C-4.5412207 185.92374512 -4.61759766 186.88264648 -4.69628906 187.87060547 C-4.77588867 188.88268066 -4.85548828 189.89475586 -4.9375 190.9375 C-5.28177292 194.95923371 -5.63916042 198.9797225 -6 203 C-6.06268066 203.72687012 -6.12536133 204.45374023 -6.18994141 205.20263672 C-6.90208542 212.95597924 -8.48469003 219.23399412 -14 225 C-16.1953125 226.23828125 -16.1953125 226.23828125 -18 227 C-18 227.66 -18 228.32 -18 229 C-24.73622986 233.42666533 -33.16606799 233.6694167 -40.9375 232.3125 C-48.22535204 229.18913484 -53.53823919 224.66696679 -56.75 217.3125 C-58.17436651 213.53792874 -59.13870194 210.63966886 -59.125 206.625 C-59.12757813 205.87476563 -59.13015625 205.12453125 -59.1328125 204.3515625 C-59 202 -59 202 -58.52294922 199.68920898 C-57.99764035 196.98786577 -57.71708472 194.36348433 -57.5 191.62109375 C-57.4175 190.61755859 -57.335 189.61402344 -57.25 188.58007812 C-57.08302453 186.48114433 -56.916359 184.38218587 -56.75 182.28320312 C-56.6675 181.28095703 -56.585 180.27871094 -56.5 179.24609375 C-56.4278125 178.33529053 -56.355625 177.4244873 -56.28125 176.48608398 C-56.02641657 174.23350689 -55.55134173 172.19235835 -55 170 C-54.8708211 168.60699872 -54.77857861 167.21019821 -54.71875 165.8125 C-54.68136719 165.03132812 -54.64398437 164.25015625 -54.60546875 163.4453125 C-54.55326172 162.23488281 -54.55326172 162.23488281 -54.5 161 C-54.4308036 159.39566855 -54.35800847 157.79148743 -54.28125 156.1875 C-54.25095703 155.47980469 -54.22066406 154.77210938 -54.18945312 154.04296875 C-54 152 -54 152 -53.51367188 150.06835938 C-52.90359801 147.61182619 -52.69859821 145.24201116 -52.5 142.71875 C-52.4175 141.71199219 -52.335 140.70523438 -52.25 139.66796875 C-52.12625 138.09982422 -52.12625 138.09982422 -52 136.5 C-51.83639669 134.42683931 -51.66984654 132.35390854 -51.5 130.28125 C-51.39171875 128.90549805 -51.39171875 128.90549805 -51.28125 127.50195312 C-51.02727455 125.24262984 -50.55348687 123.19838763 -50 121 C-49.8708211 119.60699872 -49.77857861 118.21019821 -49.71875 116.8125 C-49.68136719 116.03132813 -49.64398437 115.25015625 -49.60546875 114.4453125 C-49.57066406 113.63835937 -49.53585937 112.83140625 -49.5 112 C-49.4308036 110.39566855 -49.35800847 108.79148743 -49.28125 107.1875 C-49.25095703 106.47980469 -49.22066406 105.77210937 -49.18945312 105.04296875 C-49 103 -49 103 -48.51367188 101.06835938 C-47.90359801 98.61182619 -47.69859821 96.24201116 -47.5 93.71875 C-47.4175 92.71199219 -47.335 91.70523438 -47.25 90.66796875 C-47.1675 89.62253906 -47.085 88.57710938 -47 87.5 C-46.83639669 85.42683931 -46.66984654 83.35390854 -46.5 81.28125 C-46.4278125 80.36408203 -46.355625 79.44691406 -46.28125 78.50195312 C-46.02727455 76.24262984 -45.55348687 74.19838763 -45 72 C-44.8708211 70.60699872 -44.77857861 69.21019821 -44.71875 67.8125 C-44.68136719 67.03132813 -44.64398437 66.25015625 -44.60546875 65.4453125 C-44.57066406 64.63835937 -44.53585937 63.83140625 -44.5 63 C-44.4308036 61.39566855 -44.35800847 59.79148743 -44.28125 58.1875 C-44.23581055 57.12595703 -44.23581055 57.12595703 -44.18945312 56.04296875 C-44 54 -44 54 -43.51147461 52.04858398 C-42.92465457 49.69822267 -42.72004426 47.45046798 -42.53515625 45.03515625 C-42.45869873 44.07625488 -42.38224121 43.11735352 -42.3034668 42.12939453 C-42.22394775 41.11731934 -42.14442871 40.10524414 -42.0625 39.0625 C-39.91191242 13.73248133 -39.91191242 13.73248133 -34 5 C-33.34 5 -32.68 5 -32 5 C-32 4.34 -32 3.68 -32 3 C-22.3815175 -5.87859923 -11.09483667 -5.95391019 0 0 Z "
    fill="#000000" transform="translate(891,4)" />
</svg>