<svg xmlns="http://www.w3.org/2000/svg" xmlns:xlink="http://www.w3.org/1999/xlink" width="18" height="18" viewBox="0 0 18 18">
  <defs>
    <clipPath id="clip-path">
      <rect id="Rectangle_1860" data-name="Rectangle 1860" width="18" height="18" fill="#7367f0"/>
    </clipPath>
  </defs>
  <g id="Receiver_icon" data-name="Receiver icon" transform="translate(-30)">
    <g id="Mask_Group_165" data-name="Mask Group 165" transform="translate(30)" clip-path="url(#clip-path)">
      <g id="__TEMP__SVG__" transform="translate(2.571 0.001)">
        <path id="Path_29167" data-name="Path 29167" d="M11.572,7.715a1.286,1.286,0,1,1-1.286-1.286A1.286,1.286,0,0,1,11.572,7.715Z" transform="translate(-3.857 -1.286)" fill="#7367f0"/>
        <path id="Path_29168" data-name="Path 29168" d="M10.286,1.286A6.3,6.3,0,0,0,3.857,7.433c0,1.614.735,3.761,2.186,6.38a47.15,47.15,0,0,0,3.214,4.951,1.275,1.275,0,0,0,2.058,0,47.338,47.338,0,0,0,3.214-4.951c1.449-2.618,2.185-4.765,2.185-6.38A6.3,6.3,0,0,0,10.286,1.286Zm0,9a2.572,2.572,0,1,1,2.572-2.572A2.572,2.572,0,0,1,10.286,10.286Z" transform="translate(-3.857 -1.286)" fill="#7367f0"/>
      </g>
    </g>
  </g>
</svg>
