<?xml version="1.0" encoding="UTF-8"?>
<svg version="1.1" xmlns="http://www.w3.org/2000/svg" width="148" height="25">
<path d="M0 0 C-1.73467384 5.91065705 -3.54944373 11.76240256 -5.625 17.5625 C-6.05039063 18.76003906 -6.47578125 19.95757813 -6.9140625 21.19140625 C-8 24 -8 24 -9 25 C-10.70772358 25.08713831 -12.41898649 25.10700007 -14.12890625 25.09765625 C-15.68061523 25.09282227 -15.68061523 25.09282227 -17.26367188 25.08789062 C-18.35228516 25.07951172 -19.44089844 25.07113281 -20.5625 25.0625 C-22.2012207 25.05573242 -22.2012207 25.05573242 -23.87304688 25.04882812 C-26.58208495 25.03699826 -29.29101599 25.02051543 -32 25 C-28.25 20.125 -28.25 20.125 -26 19 C-23.6670134 18.95977609 -21.33293334 18.95679753 -19 19 C-18.34 15.37 -17.68 11.74 -17 8 C-18.41152344 9.21236328 -18.41152344 9.21236328 -19.8515625 10.44921875 C-21.10935579 11.52866822 -22.36716937 12.60809404 -23.625 13.6875 C-24.24246094 14.21794922 -24.85992187 14.74839844 -25.49609375 15.29492188 C-26.73372595 16.35668003 -27.9761059 17.41292875 -29.22314453 18.46362305 C-30.35370191 19.4411715 -31.45787512 20.45075523 -32.52294922 21.49926758 C-35.83182814 24.64778712 -38.28409384 25.55159237 -42.859375 25.43945312 C-43.85710938 25.37661133 -43.85710938 25.37661133 -44.875 25.3125 C-45.56335938 25.28994141 -46.25171875 25.26738281 -46.9609375 25.24414062 C-48.64158245 25.1857849 -50.32109153 25.09612071 -52 25 C-47.23648839 20.18365831 -42.33428455 15.54761731 -37.2890625 11.02734375 C-35.2875452 9.22801708 -33.54894965 7.48168775 -31.7734375 5.44140625 C-23.61580062 -3.12869541 -10.8959268 -0.676604 0 0 Z " fill="#0B8442" transform="translate(75,0)"/>
<path d="M0 0 C0.6852475 0.00141495 1.370495 0.0028299 2.07650757 0.00428772 C4.26719511 0.0098895 6.4577808 0.02244219 8.6484375 0.03515625 C10.13281102 0.04017103 11.61718615 0.04473397 13.1015625 0.04882812 C16.74222065 0.05985948 20.38281914 0.07712526 24.0234375 0.09765625 C24.0234375 1.08765625 24.0234375 2.07765625 24.0234375 3.09765625 C14.1234375 3.59265625 14.1234375 3.59265625 4.0234375 4.09765625 C3.6934375 5.08765625 3.3634375 6.07765625 3.0234375 7.09765625 C4.16683594 7.15824219 5.31023437 7.21882812 6.48828125 7.28125 C7.97918055 7.36564053 9.47006525 7.45028927 10.9609375 7.53515625 C12.09305664 7.59413086 12.09305664 7.59413086 13.24804688 7.65429688 C18.91015625 7.984375 18.91015625 7.984375 20.0234375 9.09765625 C19.59982531 15.34593602 18.62892757 20.49216618 14.0234375 25.09765625 C11.04248047 25.32470703 11.04248047 25.32470703 7.265625 25.29296875 C6.60257355 25.29013885 5.93952209 25.28730896 5.25637817 25.28439331 C3.13688167 25.2731906 1.01780646 25.24808676 -1.1015625 25.22265625 C-2.53775432 25.21262653 -3.97395275 25.20350066 -5.41015625 25.1953125 C-8.93242878 25.17325125 -12.45445453 25.13872119 -15.9765625 25.09765625 C-15.6465625 23.77765625 -15.3165625 22.45765625 -14.9765625 21.09765625 C-8.0465625 21.09765625 -1.1165625 21.09765625 6.0234375 21.09765625 C6.3534375 19.44765625 6.6834375 17.79765625 7.0234375 16.09765625 C5.73566406 16.10925781 4.44789063 16.12085937 3.12109375 16.1328125 C1.44270978 16.14218895 -0.23567576 16.1512893 -1.9140625 16.16015625 C-3.18926758 16.17272461 -3.18926758 16.17272461 -4.49023438 16.18554688 C-5.29912109 16.18876953 -6.10800781 16.19199219 -6.94140625 16.1953125 C-7.690271 16.20054932 -8.43913574 16.20578613 -9.21069336 16.21118164 C-10.9765625 16.09765625 -10.9765625 16.09765625 -11.9765625 15.09765625 C-11.55800666 10.15869738 -10.89009675 5.71265061 -8.9765625 1.09765625 C-6.00296801 -0.389141 -3.31357071 -0.0134698 0 0 Z " fill="#0B8442" transform="translate(123.9765625,-0.09765625)"/>
<path d="M0 0 C12.21 0 24.42 0 37 0 C36.67 0.99 36.34 1.98 36 3 C28.74 3.33 21.48 3.66 14 4 C13.67 4.99 13.34 5.98 13 7 C17.62 7 22.24 7 27 7 C26.01 9.97 25.02 12.94 24 16 C19.05 16 14.1 16 9 16 C8.67 18.31 8.34 20.62 8 23 C7.67 23.66 7.34 24.32 7 25 C2.05 25 -2.9 25 -8 25 C-5.78832571 16.38611066 -3.01989166 8.45569666 0 0 Z " fill="#0B8442" transform="translate(77,0)"/>
<path d="M0 0 C13.86 0 27.72 0 42 0 C41.34 1.65 40.68 3.3 40 5 C35.38 5.33 30.76 5.66 26 6 C24.02 12.27 22.04 18.54 20 25 C15.71 25 11.42 25 7 25 C8.64126538 18.12231652 10.35285707 11.55483011 13 5 C8.38 5 3.76 5 -1 5 C-0.67 3.35 -0.34 1.7 0 0 Z " fill="#0B8442" transform="translate(1,0)"/>
</svg>
