<?xml version="1.0" encoding="utf-8"?>
<!-- Generator: Adobe Illustrator 19.2.1, SVG Export Plug-In . SVG Version: 6.00 Build 0)  -->
<svg version="1.1" id="Layer_1" xmlns="http://www.w3.org/2000/svg" xmlns:xlink="http://www.w3.org/1999/xlink" x="0px" y="0px"
	 viewBox="0 0 1008 316.8" style="enable-background:new 0 0 1008 316.8;" xml:space="preserve">
<style type="text/css">
	.st0{fill:#0062BE;}
	.st1{fill:#FFFFFF;}
</style>
<rect x="337" y="19.6" class="st0" width="280" height="280"/>
<rect x="15" y="19.6" class="st0" width="280" height="280"/>
<rect x="659" y="19.6" class="st0" width="280" height="280"/>
<g>
	<path class="st0" d="M990.2,24.5c-3.3-3.2-7.5-4.9-12.5-4.9c-5,0-9.3,1.7-12.6,5c-3.4,3.4-5.1,7.5-5.1,12.4c0,5,1.6,9.1,4.9,12.4
		c3.3,3.2,7.5,4.9,12.6,4.9c5,0,9.2-1.7,12.6-5c3.4-3.3,5.1-7.5,5.1-12.4C995.2,31.9,993.5,27.8,990.2,24.5z M988.3,47.9
		c-2.9,2.9-6.5,4.4-10.7,4.4c-4.3,0-7.9-1.5-10.8-4.4c-2.9-2.9-4.4-6.5-4.4-10.9c0-4.3,1.4-7.9,4.3-10.8c2.9-2.9,6.5-4.3,10.9-4.3
		c4.3,0,7.9,1.5,10.8,4.3c2.9,2.9,4.4,6.5,4.4,10.8C992.7,41.3,991.2,45,988.3,47.9z"/>
	<path class="st0" d="M983.5,41.8c-1.1-2.4-2.3-3.7-3.5-3.9v-0.1c1.7-0.4,3-1.1,3.9-2.2c0.9-1,1.4-2.3,1.4-3.8
		c0-1.9-0.7-3.4-2.1-4.4c-1.4-1.1-3.5-1.6-6.3-1.6h-6.6v22h4v-8.9h1.7c1.2,0,2.3,1.2,3.3,3.6l2.1,5.3h4.9L983.5,41.8z M977,35.6
		h-2.7v-6.4h2.2c1.6,0,2.8,0.2,3.5,0.6c0.7,0.4,1.1,1.2,1.1,2.5c0,1-0.4,1.8-1.1,2.4C979.2,35.4,978.2,35.6,977,35.6z"/>
</g>
<polygon class="st1" points="715.5,110.9 774.2,110.9 774.2,248.8 824.1,248.8 824.1,110.9 882.7,110.9 882.7,69.6 715.5,69.6 "/>
<g>
	<polygon class="st1" points="579,248.8 503.6,69.6 503.5,69.6 450.3,69.6 450.2,69.6 374.8,248.8 423.7,248.8 435.9,219.8 
		517.9,219.8 530.1,248.8 	"/>
	<polygon class="st0" points="476.9,126.1 453.3,182.2 500.5,182.2 	"/>
</g>
<g>
	<path class="st1" d="M144.9,69.6H74.4v179.2h70.5c50,0,90.6-40.2,90.6-89.6C235.6,109.8,194.9,69.6,144.9,69.6z"/>
	<path class="st0" d="M136.5,112.4H124V206h12c30.1,0,48-17.5,48-46.8C184.1,130.3,165.9,112.4,136.5,112.4z"/>
</g>
</svg>
