<?xml version="1.0" encoding="utf-8"?>
<!-- Generator: Adobe Illustrator 19.2.1, SVG Export Plug-In . SVG Version: 6.00 Build 0)  -->
<svg version="1.1" id="layer" xmlns="http://www.w3.org/2000/svg" xmlns:xlink="http://www.w3.org/1999/xlink" x="0px" y="0px"
	 viewBox="0 0 652 652" style="enable-background:new 0 0 652 652;" xml:space="preserve">
<style type="text/css">
	.st0{fill:#B42025;}
	.st1{fill:#FFFFFF;}
	.st2{fill:#3A3A3A;}
	.st3{fill:#676767;}
</style>
<g>
	<path class="st0" d="M69.1,256.5c-26.7,0-48.5,21.7-48.5,48.5c0,10.9,3.5,21.1,10.2,29.7L69.1,383l38.3-48.3
		c6.7-8.6,10.2-18.8,10.2-29.7C117.6,278.3,95.9,256.5,69.1,256.5"/>
	<path class="st1" d="M89.3,318.5c-2.4,0-4.3,1.9-4.3,4.4c0,2.4,1.9,4.3,4.3,4.3c2.4,0,4.3-1.9,4.3-4.3
		C93.6,320.5,91.7,318.5,89.3,318.5"/>
	<path class="st1" d="M49,318.5c-2.4,0-4.3,1.9-4.3,4.4c0,2.4,1.9,4.3,4.3,4.3c2.4,0,4.3-1.9,4.3-4.3
		C53.3,320.5,51.4,318.5,49,318.5"/>
	<path class="st1" d="M69.1,259.4c-25.1,0-45.5,20.4-45.5,45.6c0,10.2,3.3,19.9,9.6,27.9l36,45.1l36-45.1c6.3-8.1,9.6-17.7,9.6-27.9
		C114.7,279.9,94.3,259.4,69.1,259.4 M99.8,329l-30.6,37.7L38.5,329c-5.2-6.6-8.3-14.9-8.3-24c0-21.5,17.4-38.9,38.9-38.9
		c21.5,0,38.9,17.4,38.9,38.9C108.1,314,105,322.4,99.8,329"/>
	<path class="st1" d="M61.6,279.4c-1,0-1.8,0.7-2,1.6h3.9C63.3,280.1,62.5,279.4,61.6,279.4"/>
	<path class="st1" d="M69.1,279.4c-1,0-1.8,0.7-2,1.6h3.9C70.9,280.1,70.1,279.4,69.1,279.4"/>
	<path class="st1" d="M76.7,279.4c-1,0-1.8,0.7-2,1.6h3.9C78.5,280.1,77.7,279.4,76.7,279.4"/>
	<path class="st1" d="M92.2,284.8c0,0-7.3-1.5-23.2-1.5s-22.9,1.5-22.9,1.5l-1.8,15.1c0,0,6.1-2.1,24.9-2.1
		c18.7,0,24.8,2.1,24.8,2.1L92.2,284.8z"/>
	<path class="st1" d="M63.6,343.8v-38.9c1-0.1,2.2-0.1,3.5-0.1v39.9c0.7,0.1,1.4,0.2,2.1,0.2c0.7,0,1.3-0.1,2-0.2v-39.9
		c1.3,0,2.5,0.1,3.5,0.1v38.9c1.6-0.5,3.1-1.2,4-1.7v-40.6c-0.3,0-5.7-1.2-9.7-1.1c-3.9,0-9.1,1.1-9.4,1.1v40.6
		C60.5,342.6,62,343.3,63.6,343.8"/>
	<path class="st2" d="M173.6,348.2c-4.8,0.7-7,0.8-10.2,0.8c-13,0-19.8-7.2-19.8-21v-41.7h-12.2V278h12.2l0-17.4l10.6,0V278h15.6
		v8.4h-15.6v43.3c0,7.2,3.8,10.8,11.2,10.8c2.5,0,4.5-0.1,8.3-0.8V348.2z"/>
	<path class="st2" d="M179.2,347.1V278h9.4v16.1c3.4-6.9,4.6-9,7.2-12.1c3.1-3.6,8.3-6,13.6-6c0.8,0,2.4,0.1,3.9,0.3v10.2
		c-13-1.1-23,9.3-23.3,24v36.6H179.2z"/>
	<path class="st2" d="M263.7,347.1v-13.2c-4.9,9.8-12.3,15-22,15c-14,0-22.7-10.1-22.7-26.8V278h10.8v44.2c0,6.3,1.1,10.4,3.5,13.2
		c2.5,3.1,6.3,4.8,10.1,4.8c10.7,0,19.2-10.4,19.2-23.1v-39h10.8v69.1H263.7z"/>
	<path class="st2" d="M335,324.5c-1.7,8.4-3.6,12.5-8.1,17c-4.9,5.1-10.9,7.4-18.7,7.4c-17.7,0-29.2-14.3-29.2-36.3
		c0-21.9,11.8-36.5,29.7-36.5c14.2,0,23.4,8.4,26.2,24.1l-9.7,1.8c-0.8-5.3-1.8-7.9-3.6-10.5c-3.1-4.2-7.7-6.6-13-6.6
		c-11.4,0-18.4,10.5-18.4,27.3c0,17.4,6.7,27.8,18.2,27.8c8.7,0,14.6-5.9,16.8-17.2L335,324.5z"/>
	<polygon class="st2" points="386.6,347.1 366.4,308.5 351.4,325.8 351.4,347.1 340.6,347.1 340.6,260.5 351.4,260.5 351.4,313.4 
		383.5,278 395,278 373.4,302.4 397.8,347.1 	"/>
	<path class="st2" d="M405.7,327.1c1.1,3.9,2.2,6,4.5,7.9c3.9,3.2,10.5,5.2,17,5.2c9.7,0,16.3-4.5,16.3-11.2
		c0-5.6-4.1-9.1-11.9-10.7l-14.6-2.7c-11.8-2.2-18.7-9.3-18.7-19.1c0-12.2,10.4-20.3,26.1-20.3c14.4,0,23.8,6,27.2,17.5l-9.8,2.1
		c-3.2-7.4-8.8-10.8-17.7-10.8c-9,0-14.9,4.1-14.9,10.2c0,5.2,3.5,8.3,10.8,9.7l13.6,2.4c14.2,2.5,21,9.3,21,20.5
		c0,12.6-11.4,21.2-28.5,21.2c-9.8,0-17.7-2.5-23.6-7.7c-3.6-3.1-5.5-6-7.2-12.1L405.7,327.1z"/>
	<path class="st2" d="M556.3,313.3c0,20.8-13.3,35.6-32,35.6c-18.1,0-30.2-14.6-30.2-36.6c0-21.5,12.8-36.2,31.3-36.2
		C544.2,276.1,556.3,290.7,556.3,313.3 M510.7,292.6c-3.1,4.5-4.8,11.2-4.8,19.6c0,17.8,7,27.9,19.2,27.9
		c12.1,0,19.4-10.2,19.4-27.3c0-9.4-1.5-15.6-4.9-20.3c-3.5-4.6-9-7.4-14.6-7.4C519.6,285,513.9,287.9,510.7,292.6"/>
	<path class="st2" d="M561.8,385.5V278h9.7v13.5c5.5-10.7,12.1-15.3,21.7-15.3c16.4,0,27.5,14.7,27.5,36.3
		c0,21.7-11.2,36.5-27.6,36.5c-9,0-14.6-3.4-20.5-12.3v48.9H561.8z M572.6,322c1.7,10.5,9.5,18.1,18.4,18.1c4.6,0,9.8-2.7,12.8-6.5
		c3.5-4.5,5.2-11.2,5.2-20.5c0-17.4-6.7-27.6-17.9-27.6c-8.6,0-15.6,6.5-18.4,17.1V322z"/>
	<path class="st2" d="M495.5,348.2c-4.8,0.7-7,0.8-10.2,0.8c-13,0-19.8-7.2-19.8-21v-41.7h-12.2V278h12.2l0-17.4l10.6,0V278h15.6
		v8.4H476v43.3c0,7.2,3.8,10.8,11.2,10.8c2.5,0,4.5-0.1,8.3-0.8V348.2z"/>
	<rect x="457.7" y="379" class="st3" width="6.1" height="6.5"/>
	<path class="st3" d="M487.6,376.8c-0.6,2.7-1.2,4-2.3,5.5c-1.8,2.4-4.6,3.7-7.9,3.7c-6.4,0-10.7-5.2-10.7-13
		c0-7.8,4.5-13.1,11.2-13.1c3.1,0,5.8,1.1,7.5,3.1c1.3,1.5,1.8,2.8,2.3,5.5l-4.9,0.7c-0.4-3.1-2-4.7-4.6-4.7c-3.5,0-5.5,3.2-5.5,8.6
		c0,4.9,1.9,7.9,5.1,7.9c2.5,0,4.2-1.6,4.9-4.8L487.6,376.8z"/>
	<path class="st3" d="M510.2,365.1c1.5,2.4,2.1,4.7,2.1,7.9c0,7.7-4.9,13-11.9,13c-3.9,0-6.9-1.6-8.9-4.6c-1.7-2.4-2.5-5.3-2.5-8.5
		c0-7.6,4.8-12.9,11.7-12.9C504.9,359.9,507.9,361.6,510.2,365.1 M494.9,372.9c0,5.4,2,8.4,5.6,8.4c3.7,0,5.7-3.1,5.7-8.5
		c0-5.4-2-8.3-5.6-8.3C497,364.6,494.9,367.6,494.9,372.9"/>
	<path class="st3" d="M545.8,385.5v-15.6c0-3.2-1.5-4.8-4.3-4.8c-3.5,0-5.5,2.6-5.5,7.3v13.2h-6v-15.6c0-1.6-0.1-2.1-0.6-3
		c-0.7-1.2-2-1.9-3.5-1.9c-3.4,0-5.8,3.1-5.8,7.4v13.2h-5.8v-25h5.5v5.3c1.1-2.1,1.7-3,2.7-3.9c1.4-1.2,3.5-1.9,5.6-1.9
		c3.7,0,6,1.8,7.2,5.8c2.1-4,4.8-5.8,8.4-5.8c4.7,0,8,3.2,8,7.8v17.7H545.8z"/>
</g>
</svg>
