<svg width="267" height="48" viewBox="0 0 267 48" fill="none" xmlns="http://www.w3.org/2000/svg">
  <g clip-path="url(#clip0_563_1488)">
    <path
      d="M34.3174 31.2822H16.3174L10.3174 40.2822L22.3174 46.2822C28.7174 45.4822 32.984 35.9488 34.3174 31.2822Z"
      fill="url(#paint0_linear_563_1488)" />
    <path
      d="M0.317383 36.282V0.281916C6.71738 -1.31808 12.3174 4.28192 14.3174 7.28192L16.3174 32.282C16.3174 40.282 20.984 44.9486 23.3174 46.282L21.3174 47.282C8.51738 49.682 1.98405 40.9486 0.317383 36.282Z"
      fill="#1877F2" />
    <path
      d="M13.3174 9.28188C5.31738 11.6819 1.31738 20.2818 0.317383 24.2818C3.51738 25.8816 12.3174 24.9484 16.3174 24.2818C24.3174 23.4816 27.6508 13.9484 28.3174 9.28188C24.3174 7.68188 16.6507 8.61522 13.3174 9.28188Z"
      fill="url(#paint1_linear_563_1488)" />
    <path d="M44.3174 24.5081V22.3827H56.6042V24.5081H51.8444V36.3786H49.0772V24.5081H44.3174Z"
      fill="#1877F2" />
    <path
      d="M58.6045 36.3786V22.3827H64.3794C65.5625 22.3827 66.5551 22.5695 67.3572 22.9431C68.1642 23.3167 68.7733 23.8407 69.1845 24.5149C69.6005 25.1847 69.8086 25.966 69.8086 26.859C69.8086 27.7565 69.598 28.5355 69.1769 29.1962C68.7609 29.8522 68.1467 30.3603 67.3346 30.7201C66.3707 30.8918 65.9537 30.9661 64.3418 31.2533H61.3943V29.1483H63.9659C64.6577 29.1483 65.2242 29.0618 65.6653 28.8887C66.1064 28.711 66.4322 28.4536 66.6428 28.1164C66.8584 27.7748 66.9661 27.3555 66.9661 26.859C66.9661 26.3624 66.8584 25.9387 66.6428 25.5879C66.4272 25.2325 66.0989 24.9637 65.6578 24.7815C65.2166 24.5947 64.6476 24.5013 63.9509 24.5013H61.3943V36.3786H58.6045ZM67.3346 30.7201L70.3725 36.3786H67.2594L64.3418 31.2533L67.3346 30.7201Z"
      fill="#1877F2" />
    <path
      d="M82.0797 22.1708H84.8695V31.3147C84.8695 32.317 84.6088 33.1986 84.0875 33.9595C83.5711 34.7202 82.8443 35.3148 81.9068 35.743C80.9694 36.1667 79.874 36.3786 78.6207 36.3786C77.3625 36.3786 76.2646 36.1667 75.3272 35.743C74.3898 35.3148 73.6629 34.7202 73.1466 33.9595C72.6302 33.1986 72.3721 32.317 72.3721 31.3147V22.1708H75.1618V31.1028C75.1618 31.686 75.3021 32.2054 75.5829 32.661C75.8686 33.1165 76.2697 33.4742 76.786 33.7339C77.3023 33.989 77.9139 34.1167 78.6207 34.1167C79.3275 34.1167 79.9392 33.989 80.4555 33.7339C80.9768 33.4742 81.3779 33.1165 81.6587 32.661C81.9393 32.2054 82.0797 31.686 82.0797 31.1028V22.1708Z"
      fill="#1877F2" />
    <path
      d="M100.443 26.9136H97.6304C97.5503 26.4945 97.4024 26.1232 97.1868 25.7997C96.9713 25.4717 96.7031 25.1937 96.3823 24.9659C96.0614 24.7381 95.6954 24.5673 95.2844 24.4534C94.8783 24.3349 94.4397 24.2757 93.9685 24.2757C93.1314 24.2757 92.3894 24.4671 91.7427 24.8498C91.0961 25.2279 90.5898 25.7837 90.2238 26.5172C89.8579 27.2462 89.6749 28.1369 89.6749 29.1894C89.6749 30.26 89.8579 31.1621 90.2238 31.8956C90.5947 32.6245 91.1011 33.1758 91.7427 33.5495C92.3894 33.9184 93.1289 34.103 93.9609 34.103C94.4222 34.103 94.8533 34.0483 95.2543 33.9389C95.6604 33.8251 96.0239 33.6588 96.3446 33.44C96.6706 33.2214 96.9437 32.9526 97.1642 32.6337C97.3898 32.3147 97.5452 31.9503 97.6304 31.5402L100.443 31.5538C100.338 32.2191 100.109 32.8432 99.7585 33.4263C99.4126 34.0095 98.959 34.5244 98.3975 34.9709C97.836 35.4128 97.1794 35.759 96.4273 36.0097C95.6754 36.2557 94.8408 36.3786 93.9234 36.3786C92.5699 36.3786 91.3617 36.0939 90.299 35.5244C89.2362 34.9549 88.399 34.1326 87.7875 33.0574C87.1759 31.9821 86.8701 30.6928 86.8701 29.1894C86.8701 27.6813 87.1784 26.392 87.795 25.3213C88.4115 24.2461 89.2513 23.4237 90.314 22.8542C91.3767 22.2847 92.5799 22 93.9234 22C94.7805 22 95.5777 22.1093 96.3146 22.328C97.0514 22.5467 97.7082 22.8679 98.2847 23.2916C98.8612 23.7108 99.3349 24.2256 99.7058 24.8361C100.082 25.442 100.327 26.1346 100.443 26.9136Z"
      fill="#1877F2" />
    <path
      d="M102.442 36.3786V22.3827H105.232V28.8134H105.42L111.428 22.3827H114.834L108.879 28.6632L114.887 36.3786H111.533L106.939 30.3785L105.232 32.21V36.3786H102.442Z"
      fill="#1877F2" />
    <path
      d="M116.887 36.3786V22.3827H122.09C123.298 22.3827 124.286 22.5809 125.053 22.9773C125.825 23.3691 126.396 23.8999 126.767 24.5696C127.138 25.2393 127.324 25.9865 127.324 26.8111C127.324 27.6358 127.138 28.3852 126.767 29.0595C126.401 29.7338 125.835 30.2714 125.068 30.6724C124.301 31.0687 123.318 31.2669 122.12 31.2669L118.752 31.1909V29.7634H122.06C122.887 29.7634 123.551 29.6336 124.053 29.3739C124.554 29.1141 124.918 28.7634 125.143 28.3215C125.374 27.875 125.489 27.3715 125.489 26.8111C125.489 26.2508 125.374 25.7496 125.143 25.3077C124.918 24.8657 124.552 24.5195 124.045 24.2689C123.539 24.0138 122.867 23.8862 122.03 23.8862H118.752V36.3786H116.887Z"
      fill="#1877F2" fill-opacity="0.8" />
    <path
      d="M129.324 36.3786V22.3827H138.619V23.8862H131.189V28.6153H138.136V30.1187H131.189V34.8752H138.739V36.3786H129.324Z"
      fill="#1877F2" fill-opacity="0.8" />
    <path
      d="M145.49 36.3786H140.738V22.3827H145.7C147.194 22.3827 148.472 22.6629 149.536 23.2233C150.599 23.7791 151.412 24.5787 151.98 25.622C152.546 26.6608 152.83 27.9046 152.83 29.3534C152.83 30.8113 152.544 32.0665 151.972 33.1189C151.4 34.1668 150.569 34.9732 149.476 35.5381C148.382 36.0985 147.054 36.3786 145.49 36.3786ZM142.603 34.8752H145.37C146.644 34.8752 147.698 34.6519 148.536 34.2054C149.372 33.759 149.996 33.1235 150.408 32.2989C150.818 31.4742 151.025 30.4924 151.025 29.3534C151.025 28.2236 150.822 27.2508 150.415 26.4353C150.01 25.6152 149.402 24.9865 148.596 24.5491C147.788 24.1072 146.784 23.8862 145.58 23.8862H142.603V34.8752Z"
      fill="#1877F2" fill-opacity="0.8" />
    <path d="M156.695 22.3827V36.3786H154.83V22.3827H156.695Z" fill="#1877F2" fill-opacity="0.8" />
    <path
      d="M160.65 36.3786H158.694L164.35 22.3827H166.275L171.929 36.3786H169.974L165.372 24.5969H165.252L160.65 36.3786ZM162.785 30.9115H167.838L168.417 32.3908H162.208L162.785 30.9115Z"
      fill="#1877F2" fill-opacity="0.8" />
    <path
      d="M182.937 18.2356V39.6893H179.268V18.2356H182.937ZM189.67 18.2356V21.1825H172.593V18.2356H189.67ZM194.002 18.2356H197.303L203.506 34.7827L209.695 18.2356H212.995L204.803 39.6893H202.18L194.002 18.2356ZM192.499 18.2356H195.638L196.183 32.5577V39.6893H192.499V18.2356ZM211.36 18.2356H214.513V39.6893H210.815V32.5577L211.36 18.2356ZM230.191 34.1638C230.191 33.7218 230.122 33.3288 229.985 32.985C229.857 32.6412 229.626 32.3269 229.292 32.042C228.958 31.7571 228.486 31.4821 227.877 31.2169C227.278 30.9418 226.512 30.6618 225.579 30.377C224.557 30.0626 223.614 29.7139 222.75 29.3308C221.895 28.9379 221.149 28.486 220.51 27.9752C219.872 27.4546 219.376 26.8603 219.022 26.1923C218.668 25.5145 218.491 24.7336 218.491 23.8495C218.491 22.9752 218.673 22.1796 219.037 21.4625C219.41 20.7454 219.935 20.1265 220.613 19.6059C221.301 19.0754 222.111 18.6678 223.044 18.3829C223.978 18.0882 225.009 17.9409 226.139 17.9409C227.73 17.9409 229.1 18.2356 230.25 18.8249C231.409 19.4143 232.298 20.2051 232.917 21.1972C233.545 22.1894 233.86 23.2847 233.86 24.4831H230.191C230.191 23.7758 230.039 23.152 229.734 22.6118C229.439 22.0617 228.987 21.6295 228.378 21.3151C227.779 21.0008 227.018 20.8436 226.095 20.8436C225.22 20.8436 224.493 20.9762 223.914 21.2414C223.334 21.5067 222.902 21.8652 222.617 22.3171C222.332 22.7689 222.19 23.2797 222.19 23.8495C222.19 24.2522 222.283 24.6206 222.47 24.9546C222.656 25.2788 222.941 25.5833 223.324 25.8681C223.708 26.1432 224.189 26.4035 224.768 26.6491C225.348 26.8947 226.031 27.1304 226.817 27.3564C228.005 27.71 229.041 28.1029 229.926 28.5351C230.81 28.9575 231.546 29.4389 232.136 29.9791C232.725 30.5194 233.167 31.1334 233.462 31.821C233.757 32.4988 233.904 33.2699 233.904 34.1343C233.904 35.0381 233.722 35.8534 233.359 36.5803C232.995 37.2974 232.475 37.9113 231.797 38.4221C231.129 38.9231 230.323 39.3111 229.38 39.5862C228.447 39.8514 227.406 39.984 226.257 39.984C225.225 39.984 224.209 39.8465 223.207 39.5714C222.214 39.2964 221.311 38.8789 220.495 38.319C219.68 37.7493 219.032 37.042 218.55 36.1972C218.069 35.3426 217.828 34.3455 217.828 33.206H221.527C221.527 33.9035 221.645 34.4978 221.88 34.9889C222.126 35.4801 222.465 35.8829 222.897 36.1972C223.329 36.5017 223.83 36.7276 224.4 36.875C224.98 37.0223 225.598 37.096 226.257 37.096C227.121 37.096 227.843 36.9732 228.423 36.7276C229.012 36.4821 229.454 36.1383 229.749 35.6962C230.043 35.2542 230.191 34.7434 230.191 34.1638Z"
      fill="#1877F2" />
  </g>
  <defs>
    <linearGradient id="paint0_linear_563_1488" x1="22.3174" y1="31.2822" x2="22.3174" y2="46.2822"
      gradientUnits="userSpaceOnUse">
      <stop stop-color="#1877F2" />
      <stop offset="1" stop-color="#0B53AF" />
    </linearGradient>
    <linearGradient id="paint1_linear_563_1488" x1="14.3174" y1="8.39844" x2="14.3174" y2="25.1652"
      gradientUnits="userSpaceOnUse">
      <stop stop-color="#1877F2" />
      <stop offset="1" stop-color="#0B53AF" />
    </linearGradient>
    <clipPath id="clip0_563_1488">
      <rect width="266" height="48" fill="white" transform="translate(0.317383)" />
    </clipPath>
  </defs>
</svg>
  