<svg width="20" height="16" viewBox="0 0 20 16" fill="none" xmlns="http://www.w3.org/2000/svg">
<path d="M20 6V12C20 13.0609 19.5786 14.0783 18.8284 14.8284C18.0783 15.5786 17.0609 16 16 16H4C2.93913 16 1.92172 15.5786 1.17157 14.8284C0.421427 14.0783 0 13.0609 0 12V6H20ZM5.01 10H5C4.86868 10.0007 4.73877 10.0272 4.6177 10.078C4.49662 10.1289 4.38675 10.2031 4.29436 10.2964C4.10776 10.4849 4.00367 10.7398 4.005 11.005C4.00566 11.1363 4.03217 11.2662 4.08303 11.3873C4.1339 11.5084 4.20811 11.6182 4.30143 11.7106C4.39475 11.803 4.50536 11.8761 4.62694 11.9258C4.74851 11.9754 4.87868 12.0007 5.01 12C5.27522 12 5.52957 11.8946 5.71711 11.7071C5.90464 11.5196 6.01 11.2652 6.01 11C6.01 10.7348 5.90464 10.4804 5.71711 10.2929C5.52957 10.1054 5.27522 10 5.01 10ZM11 10H9C8.73478 10 8.48043 10.1054 8.29289 10.2929C8.10536 10.4804 8 10.7348 8 11C8 11.2652 8.10536 11.5196 8.29289 11.7071C8.48043 11.8946 8.73478 12 9 12H11C11.2652 12 11.5196 11.8946 11.7071 11.7071C11.8946 11.5196 12 11.2652 12 11C12 10.7348 11.8946 10.4804 11.7071 10.2929C11.5196 10.1054 11.2652 10 11 10ZM16 0C17.0609 0 18.0783 0.421427 18.8284 1.17157C19.5786 1.92172 20 2.93913 20 4H0C0 2.93913 0.421427 1.92172 1.17157 1.17157C1.92172 0.421427 2.93913 0 4 0H16Z" fill="#0B5AC1"/>
</svg>
