<svg width="21" height="16" viewBox="0 0 21 16" fill="none" xmlns="http://www.w3.org/2000/svg">
<path d="M20.5 6V12C20.5 13.0609 20.0786 14.0783 19.3284 14.8284C18.5783 15.5786 17.5609 16 16.5 16H4.5C3.43913 16 2.42172 15.5786 1.67157 14.8284C0.921427 14.0783 0.5 13.0609 0.5 12V6H20.5ZM5.51 10H5.5C5.36868 10.0007 5.23877 10.0272 5.1177 10.078C4.99662 10.1289 4.88675 10.2031 4.79436 10.2964C4.60776 10.4849 4.50367 10.7398 4.505 11.005C4.50566 11.1363 4.53217 11.2662 4.58303 11.3873C4.6339 11.5084 4.70811 11.6182 4.80143 11.7106C4.89475 11.803 5.00536 11.8761 5.12694 11.9258C5.24851 11.9754 5.37868 12.0007 5.51 12C5.77522 12 6.02957 11.8946 6.21711 11.7071C6.40464 11.5196 6.51 11.2652 6.51 11C6.51 10.7348 6.40464 10.4804 6.21711 10.2929C6.02957 10.1054 5.77522 10 5.51 10ZM11.5 10H9.5C9.23478 10 8.98043 10.1054 8.79289 10.2929C8.60536 10.4804 8.5 10.7348 8.5 11C8.5 11.2652 8.60536 11.5196 8.79289 11.7071C8.98043 11.8946 9.23478 12 9.5 12H11.5C11.7652 12 12.0196 11.8946 12.2071 11.7071C12.3946 11.5196 12.5 11.2652 12.5 11C12.5 10.7348 12.3946 10.4804 12.2071 10.2929C12.0196 10.1054 11.7652 10 11.5 10ZM16.5 0C17.5609 0 18.5783 0.421427 19.3284 1.17157C20.0786 1.92172 20.5 2.93913 20.5 4H0.5C0.5 2.93913 0.921427 1.92172 1.67157 1.17157C2.42172 0.421427 3.43913 0 4.5 0H16.5Z" fill="#0E5F21"/>
</svg>
