<svg width="25" height="24" viewBox="0 0 25 24" fill="none" xmlns="http://www.w3.org/2000/svg">
<g clip-path="url(#clip0_160_1257)">
<path d="M18.5 3C19.2652 2.99996 20.0015 3.29233 20.5583 3.81728C21.115 4.34224 21.4501 5.06011 21.495 5.824L21.5 6V18C21.5 18.7652 21.2077 19.5015 20.6827 20.0583C20.1578 20.615 19.4399 20.9501 18.676 20.995L18.5 21H6.5C5.73479 21 4.99849 20.7077 4.44174 20.1827C3.88499 19.6578 3.54989 18.9399 3.505 18.176L3.5 18V6C3.49996 5.23479 3.79233 4.49849 4.31728 3.94174C4.84224 3.38499 5.56011 3.04989 6.324 3.005L6.5 3H18.5ZM19.5 9H5.5V18C5.50003 18.2449 5.58996 18.4813 5.75272 18.6644C5.91547 18.8474 6.13975 18.9643 6.383 18.993L6.5 19H18.5C18.7449 19 18.9813 18.91 19.1644 18.7473C19.3474 18.5845 19.4643 18.3603 19.493 18.117L19.5 18V9Z" fill="#0B5AC1"/>
</g>
<defs>
<clipPath id="clip0_160_1257">
<rect width="24" height="24" fill="white" transform="translate(0.5)"/>
</clipPath>
</defs>
</svg>
